<?xml version="1.0" encoding="UTF-8" standalone="no"?>
<!-- Generator: Adobe Illustrator 12.0.0, SVG Export Plug-In . SVG Version: 6.00 Build 51448)  -->

<svg
   xmlns:dc="http://purl.org/dc/elements/1.1/"
   xmlns:cc="http://creativecommons.org/ns#"
   xmlns:rdf="http://www.w3.org/1999/02/22-rdf-syntax-ns#"
   xmlns:svg="http://www.w3.org/2000/svg"
   xmlns="http://www.w3.org/2000/svg"
   xmlns:sodipodi="http://sodipodi.sourceforge.net/DTD/sodipodi-0.dtd"
   xmlns:inkscape="http://www.inkscape.org/namespaces/inkscape"
   version="1.0"
   id="Layer_1"
   width="350"
   height="250"
   viewBox="-5.235 -6.141 64.473684 42.188751"
   overflow="visible"
   enable-background="new -5.235 -6.141 175 120"
   xml:space="preserve"
   sodipodi:version="0.32"
   inkscape:version="0.47pre4 "
   sodipodi:docname="TO-92_Front_with_Pin_Numbers.svg"
   inkscape:output_extension="org.inkscape.output.svg.inkscape"
   style="overflow:visible"><metadata
   id="metadata252"><rdf:RDF><cc:Work
       rdf:about=""><dc:format>image/svg+xml</dc:format><dc:type
         rdf:resource="http://purl.org/dc/dcmitype/StillImage" /></cc:Work></rdf:RDF></metadata><defs
   id="defs250"><inkscape:perspective
     sodipodi:type="inkscape:persp3d"
     inkscape:vp_x="0 : 60 : 1"
     inkscape:vp_y="0 : 1000 : 0"
     inkscape:vp_z="175 : 60 : 1"
     inkscape:persp3d-origin="87.5 : 40 : 1"
     id="perspective254" /></defs><sodipodi:namedview
   inkscape:window-height="874"
   inkscape:window-width="1395"
   inkscape:pageshadow="2"
   inkscape:pageopacity="0.0"
   guidetolerance="10.0"
   gridtolerance="10.0"
   objecttolerance="10.0"
   borderopacity="1.0"
   bordercolor="#666666"
   pagecolor="#ffffff"
   id="base"
   showgrid="false"
   inkscape:zoom="1.099046"
   inkscape:cx="440.82306"
   inkscape:cy="185.52183"
   inkscape:window-x="41"
   inkscape:window-y="-4"
   inkscape:current-layer="Layer_1"
   inkscape:window-maximized="1" />
<g
   id="XMLID_1_"
   transform="matrix(0.36281192,0,0,0.36871896,-1.8564876,-6.1835582)">
	<g
   id="g4">
		<g
   id="XMLID_5_">
			<g
   id="g7">
				<polygon
   points="111.707,52.969 111.707,55.609 111.707,56.51 111.707,56.51 106.656,59.43 106.007,59.81 106.007,56.209 111.656,52.939 "
   id="polygon9"
   style="fill:#efeeef" />
				<polygon
   points="96.227,50.509 96.227,50.569 96.227,54.109 13.307,101.989 13.307,98.39 13.307,98.39 "
   id="polygon11"
   style="fill:#efeeef" />
				<polygon
   points="97.066,51.049 96.227,50.569 96.227,50.509 13.307,98.39 10.066,96.529 92.087,49.08 92.087,49.08 92.877,48.619 92.087,48.169 92.087,48.129 96.517,45.649 96.517,45.639 97.786,44.929 97.797,44.909 98.627,45.409 109.177,39.209 112.486,41.129 101.887,47.259 102.656,47.719 "
   id="polygon13"
   style="fill:#efeeef" />
				<polygon
   points="111.656,52.939 106.007,56.209 105.167,55.729 105.167,55.669 22.307,103.609 19.066,101.689 19.066,101.689 101.087,54.3 101.877,53.839 101.087,53.389 101.087,53.359 106.727,50.089 106.736,50.069 107.627,50.569 118.187,44.419 118.196,44.419 121.116,46.109 121.417,46.29 110.887,52.479 "
   id="polygon15"
   style="fill:#efeeef" />
				<polygon
   points="103.477,35.909 103.547,35.959 103.547,39.469 95.807,44.029 93.767,45.229 93.767,42.589 93.767,42.529 93.717,42.56 92.887,42.1 92.887,42.1 103.467,35.909 "
   id="polygon17"
   style="fill:#efeeef" />
				<polygon
   points="93.227,29.989 93.227,29.989 100.247,34.049 93.877,37.729 93.467,35.75 93.227,33.77 93.167,31.85 "
   id="polygon19"
   style="fill:#424242" />
				<polygon
   points="102.656,47.719 101.887,47.259 112.486,41.129 112.547,41.159 112.547,44.689 112.547,44.689 102.707,50.389 102.707,47.75 102.707,47.689 "
   id="polygon21"
   style="fill:#efeeef" />
				<polygon
   points="111.707,52.909 111.656,52.939 110.887,52.479 121.417,46.29 121.427,46.29 121.486,46.33 121.486,49.85 121.486,49.85 111.707,55.609 111.707,52.969 "
   id="polygon23"
   style="fill:#efeeef" />
				<polygon
   points="13.307,101.989 10.066,100.1 10.066,100.1 10.066,96.529 13.307,98.39 "
   id="polygon25"
   style="fill:#efeeef" />
				<polygon
   points="1.066,94.939 1.066,91.369 1.066,91.369 4.367,93.229 4.367,96.829 "
   id="polygon27"
   style="fill:#efeeef" />
				<path
   d="m 125.057,37.889 35.43,-20.44 c 1.851,3.92 3.09,8.15 3.48,12.48 l -35.46,20.42 c -0.21,-4.24 -1.7,-8.6 -3.42,-12.44 l -0.03,-0.02 z"
   id="path29"
   style="fill:#424242" />
				<polygon
   points="88.066,45.889 88.066,45.889 93.717,42.56 93.767,42.589 93.767,45.229 93.767,46.129 88.066,49.489 "
   id="polygon31"
   style="fill:#efeeef" />
				<polygon
   points="1.066,91.369 83.146,43.919 83.937,43.459 83.146,43.009 83.146,42.979 83.146,42.979 88.786,39.709 88.797,39.689 89.627,40.189 93.877,37.729 100.247,34.049 103.467,35.909 92.887,42.1 93.717,42.56 88.066,45.889 87.227,45.35 87.227,45.29 4.367,93.229 "
   id="polygon33"
   style="fill:#efeeef" />
				<polygon
   points="96.696,21.5 96.696,21.5 132.167,1.069 132.177,1.049 160.486,17.449 125.057,37.889 96.717,21.509 "
   id="polygon35"
   style="fill:#424242" />
				<path
   d="m 93.227,29.969 c 0.271,-3.06 1.24,-6.23 3.48,-8.44 l 0.01,-0.02 28.34,16.38 0.03,0.02 c 1.72,3.84 3.21,8.2 3.42,12.44 l -0.03,0.02 -6.99,-4.04 0,-0.02 -0.05,-0.03 -3.22,-1.87 -0.021,0.01 -0.01,0 -0.43,-0.25 -5.21,-3.02 -0.05,-0.03 -0.431,-0.25 -2.85,-1.68 -0.03,0.01 -5.64,-3.26 0,-0.01 -0.021,-0.01 -0.029,-0.02 -0.011,0 -0.43,-0.25 -2.78,-1.62 -0.02,0.01 -7.027,-4.07 z"
   id="path37"
   style="fill:#424242" />
				<path
   d="m 106.656,59.43 5.051,-2.92 0,-0.9 9.779,-5.76 0,-3.52 6.99,4.04 0.03,0.02 c 0.46,6.89 -1.61,11.27 -4.99,13.24 -4.34,2.53 -10.84,1.07 -16.85,-4.18 l -0.01,-0.02 z"
   id="path39"
   style="fill:#424242" />
				<polygon
   points="87.227,45.29 87.227,45.35 87.227,48.889 4.367,96.829 4.367,93.229 4.367,93.229 "
   id="polygon41"
   style="fill:#efeeef" />
				<polygon
   points="98.627,45.409 97.797,44.909 97.786,44.929 96.517,45.639 95.807,44.029 95.807,44.029 103.547,39.469 103.547,35.959 109.177,39.209 "
   id="polygon43"
   style="fill:#424242" />
				<path
   d="m 123.517,63.629 c 3.38,-1.97 5.45,-6.35 4.99,-13.24 0,-0.01 0,-0.03 0,-0.04 l 35.46,-20.42 c 0.3,4.87 -0.57,10.52 -5.07,13.3 l -0.03,-0.04 -35.34,20.45 -0.01,-0.01 z"
   id="path45"
   style="fill:#424242" />
				<polygon
   points="22.307,103.609 105.167,55.669 105.167,55.729 105.167,59.27 22.307,107.209 22.307,107.209 "
   id="polygon47"
   style="fill:#efeeef" />
				<polygon
   points="102.707,47.75 102.707,50.389 102.707,51.29 102.707,51.29 100.536,52.589 97.066,54.649 97.066,51.049 102.656,47.719 "
   id="polygon49"
   style="fill:#efeeef" />
				<polygon
   points="101.087,53.359 101.087,53.359 101.066,53.359 100.547,52.609 100.536,52.589 102.707,51.29 102.707,50.389 112.547,44.689 112.547,41.159 117.757,44.169 118.187,44.419 107.627,50.569 106.736,50.069 106.727,50.089 "
   id="polygon51"
   style="fill:#424242" />
			</g>
			<g
   id="g53">
				
					<polyline
   stroke-miterlimit="10"
   points="      102.707,47.75 102.656,47.719 101.887,47.259 101.807,47.209     "
   id="polyline55"
   style="fill:none;stroke:#000000;stroke-width:1.01999998;stroke-linecap:round;stroke-linejoin:round;stroke-miterlimit:10" />
				
					<polyline
   stroke-miterlimit="10"
   points="      97.066,51.049 102.656,47.719 102.707,47.689     "
   id="polyline57"
   style="fill:none;stroke:#000000;stroke-width:1.01999998;stroke-linecap:round;stroke-linejoin:round;stroke-miterlimit:10" />
				
					<polyline
   stroke-miterlimit="10"
   points="      102.707,51.35 102.707,51.29 102.707,50.389 102.707,47.75 102.707,47.689     "
   id="polyline59"
   style="fill:none;stroke:#000000;stroke-width:1.01999998;stroke-linecap:round;stroke-linejoin:round;stroke-miterlimit:10" />
				
					<polyline
   stroke-miterlimit="10"
   points="      97.066,54.649 97.066,51.049 97.066,50.989     "
   id="polyline61"
   style="fill:none;stroke:#000000;stroke-width:1.01999998;stroke-linecap:round;stroke-linejoin:round;stroke-miterlimit:10" />
				
					<polyline
   stroke-miterlimit="10"
   points="      97.066,54.649 100.536,52.589 102.707,51.29     "
   id="polyline63"
   style="fill:none;stroke:#000000;stroke-width:1.01999998;stroke-linecap:round;stroke-linejoin:round;stroke-miterlimit:10" />
				
					<line
   stroke-miterlimit="10"
   x1="96.226997"
   y1="54.168999"
   x2="97.066002"
   y2="54.648998"
   id="line65"
   style="fill:none;stroke:#000000;stroke-width:1.01999998;stroke-linecap:round;stroke-linejoin:round;stroke-miterlimit:10" />
				
					<polyline
   stroke-miterlimit="10"
   points="      96.517,45.649 92.087,48.129 92.017,48.169     "
   id="polyline67"
   style="fill:none;stroke:#000000;stroke-width:1.01999998;stroke-linecap:round;stroke-linejoin:round;stroke-miterlimit:10" />
				
					<line
   stroke-miterlimit="10"
   x1="97.786003"
   y1="44.929001"
   x2="96.516998"
   y2="45.639"
   id="line69"
   style="fill:none;stroke:#000000;stroke-width:1.01999998;stroke-linecap:round;stroke-linejoin:round;stroke-miterlimit:10" />
				
					<polyline
   stroke-miterlimit="10"
   points="      98.627,45.409 97.797,44.909 97.727,44.869     "
   id="polyline71"
   style="fill:none;stroke:#000000;stroke-width:1.01999998;stroke-linecap:round;stroke-linejoin:round;stroke-miterlimit:10" />
				
					<polyline
   stroke-miterlimit="10"
   points="      92.087,49.189 92.087,49.08 92.087,48.169 92.087,48.129 92.087,48.109     "
   id="polyline73"
   style="fill:none;stroke:#000000;stroke-width:1.01999998;stroke-linecap:round;stroke-linejoin:round;stroke-miterlimit:10" />
				
					<polyline
   stroke-miterlimit="10"
   points="      92.087,48.169 92.877,48.619 92.927,48.649     "
   id="polyline75"
   style="fill:none;stroke:#000000;stroke-width:1.01999998;stroke-linecap:round;stroke-linejoin:round;stroke-miterlimit:10" />
				
					<polyline
   stroke-miterlimit="10"
   points="      96.227,54.169 96.227,54.109 96.227,50.569 96.227,50.509     "
   id="polyline77"
   style="fill:none;stroke:#000000;stroke-width:1.01999998;stroke-linecap:round;stroke-linejoin:round;stroke-miterlimit:10" />
				
					<polyline
   stroke-miterlimit="10"
   points="      112.547,41.149 112.547,41.159 112.547,44.689 112.547,44.75     "
   id="polyline79"
   style="fill:none;stroke:#000000;stroke-width:1.01999998;stroke-linecap:round;stroke-linejoin:round;stroke-miterlimit:10" />
				
					<line
   stroke-miterlimit="10"
   x1="10.066"
   y1="96.528999"
   x2="13.307"
   y2="98.389999"
   id="line81"
   style="fill:none;stroke:#000000;stroke-width:1.01999998;stroke-linecap:round;stroke-linejoin:round;stroke-miterlimit:10" />
				
					<polyline
   stroke-miterlimit="10"
   points="      101.866,47.27 101.887,47.259 112.486,41.129 112.497,41.119 112.547,41.089     "
   id="polyline83"
   style="fill:none;stroke:#000000;stroke-width:1.01999998;stroke-linecap:round;stroke-linejoin:round;stroke-miterlimit:10" />
				
					<line
   stroke-miterlimit="10"
   x1="13.307"
   y1="98.389999"
   x2="13.307"
   y2="101.989"
   id="line85"
   style="fill:none;stroke:#000000;stroke-width:1.01999998;stroke-linecap:round;stroke-linejoin:round;stroke-miterlimit:10" />
				
					<polyline
   stroke-miterlimit="10"
   points="      13.307,101.989 10.066,100.1 10.007,100.069     "
   id="polyline87"
   style="fill:none;stroke:#000000;stroke-width:1.01999998;stroke-linecap:round;stroke-linejoin:round;stroke-miterlimit:10" />
				
					<line
   stroke-miterlimit="10"
   x1="13.307"
   y1="101.989"
   x2="96.226997"
   y2="54.109001"
   id="line89"
   style="fill:none;stroke:#000000;stroke-width:1.01999998;stroke-linecap:round;stroke-linejoin:round;stroke-miterlimit:10" />
				
					<line
   stroke-miterlimit="10"
   x1="102.707"
   y1="50.389"
   x2="112.547"
   y2="44.688999"
   id="line91"
   style="fill:none;stroke:#000000;stroke-width:1.01999998;stroke-linecap:round;stroke-linejoin:round;stroke-miterlimit:10" />
				
					<line
   stroke-miterlimit="10"
   x1="96.226997"
   y1="50.569"
   x2="97.066002"
   y2="51.049"
   id="line93"
   style="fill:none;stroke:#000000;stroke-width:1.01999998;stroke-linecap:round;stroke-linejoin:round;stroke-miterlimit:10" />
				
					<line
   stroke-miterlimit="10"
   x1="13.307"
   y1="98.389999"
   x2="96.226997"
   y2="50.508999"
   id="line95"
   style="fill:none;stroke:#000000;stroke-width:1.01999998;stroke-linecap:round;stroke-linejoin:round;stroke-miterlimit:10" />
				
					<polyline
   stroke-miterlimit="10"
   points="      10.066,96.529 92.087,49.08 92.877,48.619 92.927,48.589     "
   id="polyline97"
   style="fill:none;stroke:#000000;stroke-width:1.01999998;stroke-linecap:round;stroke-linejoin:round;stroke-miterlimit:10" />
				
					<polyline
   stroke-miterlimit="10"
   points="      98.627,45.409 109.177,39.209 109.187,39.199 109.217,39.189 109.247,39.169     "
   id="polyline99"
   style="fill:none;stroke:#000000;stroke-width:1.01999998;stroke-linecap:round;stroke-linejoin:round;stroke-miterlimit:10" />
				
					<polyline
   stroke-miterlimit="10"
   points="      10.066,100.129 10.066,100.1 10.066,96.529 10.066,96.47     "
   id="polyline101"
   style="fill:none;stroke:#000000;stroke-width:1.01999998;stroke-linecap:round;stroke-linejoin:round;stroke-miterlimit:10" />
				
					<polyline
   stroke-miterlimit="10"
   points="      106.007,59.81 106.656,59.43 111.707,56.51     "
   id="polyline103"
   style="fill:none;stroke:#000000;stroke-width:1.01999998;stroke-linecap:round;stroke-linejoin:round;stroke-miterlimit:10" />
				
					<polyline
   stroke-miterlimit="10"
   points="      111.707,52.969 111.656,52.939 110.887,52.479 110.807,52.429     "
   id="polyline105"
   style="fill:none;stroke:#000000;stroke-width:1.01999998;stroke-linecap:round;stroke-linejoin:round;stroke-miterlimit:10" />
				
					<line
   stroke-miterlimit="10"
   x1="22.306999"
   y1="103.609"
   x2="105.167"
   y2="55.668999"
   id="line107"
   style="fill:none;stroke:#000000;stroke-width:1.01999998;stroke-linecap:round;stroke-linejoin:round;stroke-miterlimit:10" />
				
					<polyline
   stroke-miterlimit="10"
   points="      111.707,56.569 111.707,56.51 111.707,55.609 111.707,52.969 111.707,52.909     "
   id="polyline109"
   style="fill:none;stroke:#000000;stroke-width:1.01999998;stroke-linecap:round;stroke-linejoin:round;stroke-miterlimit:10" />
				
					<line
   stroke-miterlimit="10"
   x1="111.707"
   y1="55.609001"
   x2="121.486"
   y2="49.849998"
   id="line111"
   style="fill:none;stroke:#000000;stroke-width:1.01999998;stroke-linecap:round;stroke-linejoin:round;stroke-miterlimit:10" />
				
					<polyline
   stroke-miterlimit="10"
   points="      107.627,50.569 106.736,50.069 106.667,50.029     "
   id="polyline113"
   style="fill:none;stroke:#000000;stroke-width:1.01999998;stroke-linecap:round;stroke-linejoin:round;stroke-miterlimit:10" />
				
					<polyline
   stroke-miterlimit="10"
   points="      121.427,46.29 121.437,46.279 121.486,46.25     "
   id="polyline115"
   style="fill:none;stroke:#000000;stroke-width:1.01999998;stroke-linecap:round;stroke-linejoin:round;stroke-miterlimit:10" />
				
					<polyline
   stroke-miterlimit="10"
   points="      110.866,52.489 110.887,52.479 121.417,46.29     "
   id="polyline117"
   style="fill:none;stroke:#000000;stroke-width:1.01999998;stroke-linecap:round;stroke-linejoin:round;stroke-miterlimit:10" />
				
					<polyline
   stroke-miterlimit="10"
   points="      121.486,46.31 121.486,46.33 121.486,49.85 121.486,49.909     "
   id="polyline119"
   style="fill:none;stroke:#000000;stroke-width:1.01999998;stroke-linecap:round;stroke-linejoin:round;stroke-miterlimit:10" />
				
					<polyline
   stroke-miterlimit="10"
   points="      121.486,46.31 121.437,46.279 118.217,44.409 118.177,44.389     "
   id="polyline121"
   style="fill:none;stroke:#000000;stroke-width:1.01999998;stroke-linecap:round;stroke-linejoin:round;stroke-miterlimit:10" />
				
					<polyline
   stroke-miterlimit="10"
   points="      93.767,46.189 93.767,46.129 93.767,45.229 93.767,42.589 93.767,42.529     "
   id="polyline123"
   style="fill:none;stroke:#000000;stroke-width:1.01999998;stroke-linecap:round;stroke-linejoin:round;stroke-miterlimit:10" />
				
					<polyline
   stroke-miterlimit="10"
   points="      88.066,49.489 88.066,45.889 88.066,45.83     "
   id="polyline125"
   style="fill:none;stroke:#000000;stroke-width:1.01999998;stroke-linecap:round;stroke-linejoin:round;stroke-miterlimit:10" />
				
					<line
   stroke-miterlimit="10"
   x1="88.066002"
   y1="49.488998"
   x2="93.766998"
   y2="46.129002"
   id="line127"
   style="fill:none;stroke:#000000;stroke-width:1.01999998;stroke-linecap:round;stroke-linejoin:round;stroke-miterlimit:10" />
				
					<line
   stroke-miterlimit="10"
   x1="87.226997"
   y1="48.949001"
   x2="88.066002"
   y2="49.488998"
   id="line129"
   style="fill:none;stroke:#000000;stroke-width:1.01999998;stroke-linecap:round;stroke-linejoin:round;stroke-miterlimit:10" />
				
					<polyline
   stroke-miterlimit="10"
   points="      112.066,40.869 109.217,39.189 109.177,39.169     "
   id="polyline131"
   style="fill:none;stroke:#000000;stroke-width:1.01999998;stroke-linecap:round;stroke-linejoin:round;stroke-miterlimit:10" />
				
					<polyline
   stroke-miterlimit="10"
   points="      83.146,43.969 83.146,43.919 83.146,43.009 83.146,42.979 83.146,42.949     "
   id="polyline133"
   style="fill:none;stroke:#000000;stroke-width:1.01999998;stroke-linecap:round;stroke-linejoin:round;stroke-miterlimit:10" />
				
					<line
   stroke-miterlimit="10"
   x1="4.3670001"
   y1="96.829002"
   x2="87.226997"
   y2="48.889"
   id="line135"
   style="fill:none;stroke:#000000;stroke-width:1.01999998;stroke-linecap:round;stroke-linejoin:round;stroke-miterlimit:10" />
				
					<line
   stroke-miterlimit="10"
   x1="4.3670001"
   y1="93.228996"
   x2="4.3670001"
   y2="96.829002"
   id="line137"
   style="fill:none;stroke:#000000;stroke-width:1.01999998;stroke-linecap:round;stroke-linejoin:round;stroke-miterlimit:10" />
				
					<polyline
   stroke-miterlimit="10"
   points="      87.227,48.949 87.227,48.889 87.227,45.35 87.227,45.29     "
   id="polyline139"
   style="fill:none;stroke:#000000;stroke-width:1.01999998;stroke-linecap:round;stroke-linejoin:round;stroke-miterlimit:10" />
				
					<polyline
   stroke-miterlimit="10"
   points="      4.367,96.829 1.066,94.939 1.007,94.909     "
   id="polyline141"
   style="fill:none;stroke:#000000;stroke-width:1.01999998;stroke-linecap:round;stroke-linejoin:round;stroke-miterlimit:10" />
				
					<polyline
   stroke-miterlimit="10"
   points="      1.066,91.369 83.146,43.919 83.937,43.459 83.986,43.429     "
   id="polyline143"
   style="fill:none;stroke:#000000;stroke-width:1.01999998;stroke-linecap:round;stroke-linejoin:round;stroke-miterlimit:10" />
				
					<polyline
   stroke-miterlimit="10"
   points="      83.146,43.009 83.937,43.459 83.986,43.489     "
   id="polyline145"
   style="fill:none;stroke:#000000;stroke-width:1.01999998;stroke-linecap:round;stroke-linejoin:round;stroke-miterlimit:10" />
				
					<polyline
   stroke-miterlimit="10"
   points="      88.786,39.709 83.146,42.979 83.087,43.009     "
   id="polyline147"
   style="fill:none;stroke:#000000;stroke-width:1.01999998;stroke-linecap:round;stroke-linejoin:round;stroke-miterlimit:10" />
				
					<polyline
   stroke-miterlimit="10"
   points="      1.066,94.97 1.066,94.939 1.066,91.369 1.066,91.31     "
   id="polyline149"
   style="fill:none;stroke:#000000;stroke-width:1.01999998;stroke-linecap:round;stroke-linejoin:round;stroke-miterlimit:10" />
				
					<polyline
   stroke-miterlimit="10"
   points="      93.767,42.589 93.717,42.56 92.887,42.1 92.807,42.049     "
   id="polyline151"
   style="fill:none;stroke:#000000;stroke-width:1.01999998;stroke-linecap:round;stroke-linejoin:round;stroke-miterlimit:10" />
				
					<polyline
   stroke-miterlimit="10"
   points="      88.066,45.889 93.717,42.56 93.767,42.529     "
   id="polyline153"
   style="fill:none;stroke:#000000;stroke-width:1.01999998;stroke-linecap:round;stroke-linejoin:round;stroke-miterlimit:10" />
				
					<line
   stroke-miterlimit="10"
   x1="87.226997"
   y1="45.349998"
   x2="88.066002"
   y2="45.889"
   id="line155"
   style="fill:none;stroke:#000000;stroke-width:1.01999998;stroke-linecap:round;stroke-linejoin:round;stroke-miterlimit:10" />
				
					<line
   stroke-miterlimit="10"
   x1="4.3670001"
   y1="93.228996"
   x2="87.226997"
   y2="45.290001"
   id="line157"
   style="fill:none;stroke:#000000;stroke-width:1.01999998;stroke-linecap:round;stroke-linejoin:round;stroke-miterlimit:10" />
				
					<line
   stroke-miterlimit="10"
   x1="1.066"
   y1="91.369003"
   x2="4.3670001"
   y2="93.228996"
   id="line159"
   style="fill:none;stroke:#000000;stroke-width:1.01999998;stroke-linecap:round;stroke-linejoin:round;stroke-miterlimit:10" />
				
					<polyline
   stroke-miterlimit="10"
   points="      89.627,40.189 88.797,39.689 88.727,39.649     "
   id="polyline161"
   style="fill:none;stroke:#000000;stroke-width:1.01999998;stroke-linecap:round;stroke-linejoin:round;stroke-miterlimit:10" />
				
					<polyline
   stroke-miterlimit="10"
   points="      89.627,40.189 93.877,37.729 100.247,34.049 100.257,34.04 100.276,34.029 100.307,34.009     "
   id="polyline163"
   style="fill:none;stroke:#000000;stroke-width:1.01999998;stroke-linecap:round;stroke-linejoin:round;stroke-miterlimit:10" />
				
					<line
   stroke-miterlimit="10"
   x1="103.497"
   y1="35.898998"
   x2="103.547"
   y2="35.868999"
   id="line165"
   style="fill:none;stroke:#000000;stroke-width:1.01999998;stroke-linecap:round;stroke-linejoin:round;stroke-miterlimit:10" />
				
					<line
   stroke-miterlimit="10"
   x1="103.477"
   y1="35.909"
   x2="103.486"
   y2="35.898998"
   id="line167"
   style="fill:none;stroke:#000000;stroke-width:1.01999998;stroke-linecap:round;stroke-linejoin:round;stroke-miterlimit:10" />
				
					<polyline
   stroke-miterlimit="10"
   points="      92.866,42.109 92.887,42.1 103.467,35.909     "
   id="polyline169"
   style="fill:none;stroke:#000000;stroke-width:1.01999998;stroke-linecap:round;stroke-linejoin:round;stroke-miterlimit:10" />
				
					<polyline
   stroke-miterlimit="10"
   points="      93.767,45.229 95.807,44.029 103.547,39.469     "
   id="polyline171"
   style="fill:none;stroke:#000000;stroke-width:1.01999998;stroke-linecap:round;stroke-linejoin:round;stroke-miterlimit:10" />
				
					<polyline
   stroke-miterlimit="10"
   points="      103.057,35.649 100.276,34.029 100.247,34.009     "
   id="polyline173"
   style="fill:none;stroke:#000000;stroke-width:1.01999998;stroke-linecap:round;stroke-linejoin:round;stroke-miterlimit:10" />
				
					<line
   stroke-miterlimit="10"
   x1="103.547"
   y1="35.929001"
   x2="103.526"
   y2="35.918999"
   id="line175"
   style="fill:none;stroke:#000000;stroke-width:1.01999998;stroke-linecap:round;stroke-linejoin:round;stroke-miterlimit:10" />
				
					<polyline
   stroke-miterlimit="10"
   points="      103.547,35.929 103.547,35.939 103.547,35.959 103.547,39.469 103.547,39.529     "
   id="polyline177"
   style="fill:none;stroke:#000000;stroke-width:1.01999998;stroke-linecap:round;stroke-linejoin:round;stroke-miterlimit:10" />
				
					<polyline
   stroke-miterlimit="10"
   points="      118.196,44.419 118.217,44.409 118.247,44.389     "
   id="polyline179"
   style="fill:none;stroke:#000000;stroke-width:1.01999998;stroke-linecap:round;stroke-linejoin:round;stroke-miterlimit:10" />
				
					<line
   stroke-miterlimit="10"
   x1="107.627"
   y1="50.569"
   x2="118.187"
   y2="44.418999"
   id="line181"
   style="fill:none;stroke:#000000;stroke-width:1.01999998;stroke-linecap:round;stroke-linejoin:round;stroke-miterlimit:10" />
				
					<line
   stroke-miterlimit="10"
   x1="22.306999"
   y1="107.209"
   x2="105.167"
   y2="59.27"
   id="line183"
   style="fill:none;stroke:#000000;stroke-width:1.01999998;stroke-linecap:round;stroke-linejoin:round;stroke-miterlimit:10" />
				
					<polyline
   stroke-miterlimit="10"
   points="      22.307,107.209 19.066,105.27 19.007,105.229     "
   id="polyline185"
   style="fill:none;stroke:#000000;stroke-width:1.01999998;stroke-linecap:round;stroke-linejoin:round;stroke-miterlimit:10" />
				
					<polyline
   stroke-miterlimit="10"
   points="      19.066,105.289 19.066,105.27 19.066,101.689 19.066,101.629     "
   id="polyline187"
   style="fill:none;stroke:#000000;stroke-width:1.01999998;stroke-linecap:round;stroke-linejoin:round;stroke-miterlimit:10" />
				
					<polyline
   stroke-miterlimit="10"
   points="      101.087,54.35 101.087,54.3 101.087,53.389 101.087,53.359 101.087,53.33     "
   id="polyline189"
   style="fill:none;stroke:#000000;stroke-width:1.01999998;stroke-linecap:round;stroke-linejoin:round;stroke-miterlimit:10" />
				
					<polyline
   stroke-miterlimit="10"
   points="      19.066,101.689 101.087,54.3 101.877,53.839 101.927,53.81     "
   id="polyline191"
   style="fill:none;stroke:#000000;stroke-width:1.01999998;stroke-linecap:round;stroke-linejoin:round;stroke-miterlimit:10" />
				
					<polyline
   stroke-miterlimit="10"
   points="      101.087,53.389 101.877,53.839 101.927,53.869     "
   id="polyline193"
   style="fill:none;stroke:#000000;stroke-width:1.01999998;stroke-linecap:round;stroke-linejoin:round;stroke-miterlimit:10" />
				
					<line
   stroke-miterlimit="10"
   x1="101.066"
   y1="53.368999"
   x2="101.026"
   y2="53.389"
   id="line195"
   style="fill:none;stroke:#000000;stroke-width:1.01999998;stroke-linecap:round;stroke-linejoin:round;stroke-miterlimit:10" />
				
					<polyline
   stroke-miterlimit="10"
   points="      106.727,50.089 101.087,53.359 101.066,53.359     "
   id="polyline197"
   style="fill:none;stroke:#000000;stroke-width:1.01999998;stroke-linecap:round;stroke-linejoin:round;stroke-miterlimit:10" />
				
					<line
   stroke-miterlimit="10"
   x1="22.306999"
   y1="103.609"
   x2="22.306999"
   y2="107.209"
   id="line199"
   style="fill:none;stroke:#000000;stroke-width:1.01999998;stroke-linecap:round;stroke-linejoin:round;stroke-miterlimit:10" />
				
					<polyline
   stroke-miterlimit="10"
   points="      105.167,59.329 105.167,59.27 105.167,55.729 105.167,55.669     "
   id="polyline201"
   style="fill:none;stroke:#000000;stroke-width:1.01999998;stroke-linecap:round;stroke-linejoin:round;stroke-miterlimit:10" />
				
					<polyline
   stroke-miterlimit="10"
   points="      106.007,56.209 111.656,52.939 111.707,52.909     "
   id="polyline203"
   style="fill:none;stroke:#000000;stroke-width:1.01999998;stroke-linecap:round;stroke-linejoin:round;stroke-miterlimit:10" />
				
					<line
   stroke-miterlimit="10"
   x1="19.066"
   y1="101.689"
   x2="22.306999"
   y2="103.609"
   id="line205"
   style="fill:none;stroke:#000000;stroke-width:1.01999998;stroke-linecap:round;stroke-linejoin:round;stroke-miterlimit:10" />
				
					<line
   stroke-miterlimit="10"
   x1="105.167"
   y1="55.729"
   x2="106.007"
   y2="56.209"
   id="line207"
   style="fill:none;stroke:#000000;stroke-width:1.01999998;stroke-linecap:round;stroke-linejoin:round;stroke-miterlimit:10" />
				
					<polyline
   stroke-miterlimit="10"
   points="      106.007,59.81 106.007,56.209 106.007,56.149     "
   id="polyline209"
   style="fill:none;stroke:#000000;stroke-width:1.01999998;stroke-linecap:round;stroke-linejoin:round;stroke-miterlimit:10" />
				
					<line
   stroke-miterlimit="10"
   x1="105.167"
   y1="59.328999"
   x2="106.007"
   y2="59.810001"
   id="line211"
   style="fill:none;stroke:#000000;stroke-width:1.01999998;stroke-linecap:round;stroke-linejoin:round;stroke-miterlimit:10" />
				
					<polyline
   stroke-miterlimit="10"
   points="      123.406,63.709 123.526,63.64 158.866,43.189     "
   id="polyline213"
   style="fill:none;stroke:#000000;stroke-width:1.01999998;stroke-linecap:round;stroke-linejoin:round;stroke-miterlimit:10" />
				
					<path
   stroke-miterlimit="10"
   d="m 106.667,59.449 c 6.01,5.25 12.51,6.71 16.85,4.18 3.38,-1.97 5.45,-6.35 4.99,-13.24"
   id="path215"
   style="fill:none;stroke:#000000;stroke-width:1.01999998;stroke-linecap:round;stroke-linejoin:round;stroke-miterlimit:10" />
				
					<polyline
   stroke-miterlimit="10"
   points="      100.547,52.609 101.066,53.359 101.066,53.369 101.087,53.389     "
   id="polyline217"
   style="fill:none;stroke:#000000;stroke-width:1.01999998;stroke-linecap:round;stroke-linejoin:round;stroke-miterlimit:10" />
				
					<polyline
   stroke-miterlimit="10"
   points="      95.807,44.029 96.517,45.639 96.517,45.649     "
   id="polyline219"
   style="fill:none;stroke:#000000;stroke-width:1.01999998;stroke-linecap:round;stroke-linejoin:round;stroke-miterlimit:10" />
				
					<polyline
   stroke-miterlimit="10"
   points="      93.227,29.989 93.167,31.85 93.227,33.77 93.467,35.75 93.877,37.729 93.887,37.79     "
   id="polyline221"
   style="fill:none;stroke:#000000;stroke-width:1.01999998;stroke-linecap:round;stroke-linejoin:round;stroke-miterlimit:10" />
				
					<path
   stroke-miterlimit="10"
   d="m 158.866,43.25 c 0.011,-0.01 0.021,-0.01 0.03,-0.02 4.5,-2.78 5.37,-8.43 5.07,-13.3"
   id="path223"
   style="fill:none;stroke:#000000;stroke-width:1.01999998;stroke-linecap:round;stroke-linejoin:round;stroke-miterlimit:10" />
				
					<polyline
   stroke-miterlimit="10"
   points="      117.757,44.169 112.547,41.149 112.497,41.119 112.066,40.869 109.187,39.199 103.547,35.939 103.526,35.919 103.497,35.899       103.486,35.899 103.057,35.649 100.257,34.04 93.227,29.969 93.167,29.929     "
   id="polyline225"
   style="fill:none;stroke:#000000;stroke-width:1.01999998;stroke-linecap:round;stroke-linejoin:round;stroke-miterlimit:10" />
				
					<polyline
   stroke-miterlimit="10"
   points="      160.486,17.449 132.177,1.049 132.106,1.009     "
   id="polyline227"
   style="fill:none;stroke:#000000;stroke-width:1.01999998;stroke-linecap:round;stroke-linejoin:round;stroke-miterlimit:10" />
				
					<path
   stroke-miterlimit="10"
   d="m 96.707,21.529 c -2.24,2.21 -3.21,5.38 -3.48,8.44 0,0.01 0,0.01 0,0.02"
   id="path229"
   style="fill:none;stroke:#000000;stroke-width:1.01999998;stroke-linecap:round;stroke-linejoin:round;stroke-miterlimit:10" />
				
					<polyline
   stroke-miterlimit="10"
   points="      125.087,37.909 125.057,37.889 96.717,21.509 96.696,21.5 96.646,21.469     "
   id="polyline231"
   style="fill:none;stroke:#000000;stroke-width:1.01999998;stroke-linecap:round;stroke-linejoin:round;stroke-miterlimit:10" />
				
					<path
   stroke-miterlimit="10"
   d="m 128.507,50.389 c 0,-0.01 0,-0.03 0,-0.04 -0.21,-4.24 -1.7,-8.6 -3.42,-12.44"
   id="path233"
   style="fill:none;stroke:#000000;stroke-width:1.01999998;stroke-linecap:round;stroke-linejoin:round;stroke-miterlimit:10" />
				
					<polyline
   stroke-miterlimit="10"
   points="      163.967,29.929 128.507,50.35 128.477,50.369 128.437,50.389     "
   id="polyline235"
   style="fill:none;stroke:#000000;stroke-width:1.01999998;stroke-linecap:round;stroke-linejoin:round;stroke-miterlimit:10" />
				
					<path
   stroke-miterlimit="10"
   d="m 163.967,29.929 c -0.391,-4.33 -1.63,-8.56 -3.48,-12.48"
   id="path237"
   style="fill:none;stroke:#000000;stroke-width:1.01999998;stroke-linecap:round;stroke-linejoin:round;stroke-miterlimit:10" />
				
					<polyline
   stroke-miterlimit="10"
   points="      132.167,1.069 96.696,21.5 96.646,21.529     "
   id="polyline239"
   style="fill:none;stroke:#000000;stroke-width:1.01999998;stroke-linecap:round;stroke-linejoin:round;stroke-miterlimit:10" />
				
					<polyline
   stroke-miterlimit="10"
   points="      93.227,29.989 100.247,34.049 103.467,35.909 103.477,35.909 103.547,35.959 109.177,39.209 112.486,41.129 112.547,41.159       117.757,44.169 118.187,44.419 118.196,44.419 121.116,46.109 121.417,46.29 121.427,46.29 121.486,46.33 128.477,50.369       128.507,50.389     "
   id="polyline241"
   style="fill:none;stroke:#000000;stroke-width:1.01999998;stroke-linecap:round;stroke-linejoin:round;stroke-miterlimit:10" />
				
					<polyline
   stroke-miterlimit="10"
   points="      160.486,17.449 125.057,37.889 125.026,37.909     "
   id="polyline243"
   style="fill:none;stroke:#000000;stroke-width:1.01999998;stroke-linecap:round;stroke-linejoin:round;stroke-miterlimit:10" />
			</g>
		</g>
	</g>
</g>
<rect
   x="13.227345"
   y="-100.07803"
   width="164.033"
   height="107.219"
   id="rect245"
   style="fill:none" />
<rect
   x="7.7433534"
   y="-106.46904"
   width="175"
   height="120"
   id="rect247"
   style="fill:none" />
<text
   xml:space="preserve"
   style="font-size:4.05263138px;font-style:normal;font-variant:normal;font-weight:normal;font-stretch:normal;text-align:start;line-height:100%;writing-mode:lr-tb;text-anchor:start;fill:#000000;fill-opacity:1;stroke:none;font-family:DejaVu Sans;-inkscape-font-specification:DejaVu Sans"
   x="-4.1008711"
   y="32.018822"
   id="text2629"
   sodipodi:linespacing="100%"><tspan
     sodipodi:role="line"
     id="tspan2631"
     x="-4.1008711"
     y="32.018822"
     style="font-size:4.05263138px;font-style:normal;font-variant:normal;font-weight:normal;font-stretch:normal;text-align:start;line-height:100%;writing-mode:lr-tb;text-anchor:start;font-family:DejaVu Sans;-inkscape-font-specification:DejaVu Sans">1</tspan></text>

<text
   xml:space="preserve"
   style="font-size:4.05263138px;font-style:normal;font-variant:normal;font-weight:normal;font-stretch:normal;text-align:start;line-height:100%;writing-mode:lr-tb;text-anchor:start;fill:#000000;fill-opacity:1;stroke:none;overflow:visible;font-family:DejaVu Sans;-inkscape-font-specification:DejaVu Sans"
   x="-0.65060806"
   y="34.516136"
   id="text2633"
   sodipodi:linespacing="100%"><tspan
     sodipodi:role="line"
     id="tspan2635"
     x="-0.65060806"
     y="34.516136"
     style="font-size:4.05263138px;font-style:normal;font-variant:normal;font-weight:normal;font-stretch:normal;text-align:start;line-height:100%;writing-mode:lr-tb;text-anchor:start;font-family:DejaVu Sans;-inkscape-font-specification:DejaVu Sans">2</tspan></text>

<text
   xml:space="preserve"
   style="font-size:4.05263138px;font-style:normal;font-variant:normal;font-weight:normal;font-stretch:normal;text-align:start;line-height:100%;writing-mode:lr-tb;text-anchor:start;fill:#000000;fill-opacity:1;stroke:none;overflow:visible;font-family:DejaVu Sans;-inkscape-font-specification:DejaVu Sans"
   x="2.7884595"
   y="36.937656"
   id="text2637"
   sodipodi:linespacing="100%"><tspan
     sodipodi:role="line"
     id="tspan2639"
     x="2.7884595"
     y="36.937656"
     style="font-size:4.05263138px;font-style:normal;font-variant:normal;font-weight:normal;font-stretch:normal;text-align:start;line-height:100%;writing-mode:lr-tb;text-anchor:start;font-family:DejaVu Sans;-inkscape-font-specification:DejaVu Sans">3</tspan></text>

</svg>