<?xml version="1.0" encoding="UTF-8" standalone="no"?>
<!-- Generator: Adobe Illustrator 12.0.0, SVG Export Plug-In . SVG Version: 6.00 Build 51448)  -->

<svg
   xmlns:dc="http://purl.org/dc/elements/1.1/"
   xmlns:cc="http://creativecommons.org/ns#"
   xmlns:rdf="http://www.w3.org/1999/02/22-rdf-syntax-ns#"
   xmlns:svg="http://www.w3.org/2000/svg"
   xmlns="http://www.w3.org/2000/svg"
   xmlns:sodipodi="http://sodipodi.sourceforge.net/DTD/sodipodi-0.dtd"
   xmlns:inkscape="http://www.inkscape.org/namespaces/inkscape"
   version="1.0"
   id="Layer_1"
   width="350"
   height="250"
   viewBox="-5.235 -6.141 64.473684 42.188751"
   overflow="visible"
   enable-background="new -5.235 -6.141 175 120"
   xml:space="preserve"
   sodipodi:version="0.32"
   inkscape:version="0.47pre4 "
   sodipodi:docname="TO-92_Front_with_Pin_Numbers.svg"
   inkscape:output_extension="org.inkscape.output.svg.inkscape"
   style="overflow:visible"><metadata
   id="metadata252"><rdf:RDF><cc:Work
       rdf:about=""><dc:format>image/svg+xml</dc:format><dc:type
         rdf:resource="http://purl.org/dc/dcmitype/StillImage" /><dc:title></dc:title></cc:Work></rdf:RDF></metadata><defs
   id="defs250"><inkscape:perspective
     sodipodi:type="inkscape:persp3d"
     inkscape:vp_x="0 : 60 : 1"
     inkscape:vp_y="0 : 1000 : 0"
     inkscape:vp_z="175 : 60 : 1"
     inkscape:persp3d-origin="87.5 : 40 : 1"
     id="perspective254" /><inkscape:perspective
     id="perspective4990"
     inkscape:persp3d-origin="87.75 : 40.166667 : 1"
     inkscape:vp_z="175.5 : 60.25 : 1"
     inkscape:vp_y="0 : 1000 : 0"
     inkscape:vp_x="0 : 60.25 : 1"
     sodipodi:type="inkscape:persp3d" /></defs><sodipodi:namedview
   inkscape:window-height="874"
   inkscape:window-width="1395"
   inkscape:pageshadow="2"
   inkscape:pageopacity="0.0"
   guidetolerance="10.0"
   gridtolerance="10.0"
   objecttolerance="10.0"
   borderopacity="1.0"
   bordercolor="#666666"
   pagecolor="#ffffff"
   id="base"
   showgrid="false"
   inkscape:zoom="1.099046"
   inkscape:cx="441.27951"
   inkscape:cy="189.7923"
   inkscape:window-x="41"
   inkscape:window-y="-4"
   inkscape:current-layer="Layer_1"
   inkscape:window-maximized="1" />
<g
   id="XMLID_1_"
   transform="matrix(0.36281192,0,0,0.36871896,-1.8564876,-6.1835582)">
	
<g
   id="XMLID_4_"
   transform="matrix(1.0154602,0,0,0.99919204,-3.7067942,-3.666482)">
	<g
   id="g4746">
		<polygon
   id="polygon4748"
   points="97.703,41.005 97.293,38.965 97.114,36.865 100.963,39.115 "
   style="fill:#424242" />
		<polygon
   id="polygon4750"
   points="99.633,47.305 107.343,42.765 107.373,42.775 107.373,42.805 109.963,44.275 102.453,48.685 101.614,48.205 101.583,48.165 100.333,48.895 "
   style="fill:#424242" />
		<polygon
   id="polygon4752"
   points="111.453,53.845 110.614,53.365 110.583,53.325 109.024,54.245 107.314,53.245 107.303,53.225 116.343,47.985 116.373,48.005 116.373,48.025 118.913,49.505 "
   style="fill:#424242" />
		<path
   id="path4754"
   d="m 132.394,57.265 35.399,-20.521 c 0,0.02 0,0.04 0,0.06 -0.33,3.04 -1.12,6.33 -3.479,8.46 l -35.33,20.39 c 2.179,-2.209 3.13,-5.359 3.41,-8.389 z"
   style="fill:#424242" />
		<path
   id="path4756"
   d="m 125.314,53.155 v 0.03 l 7.08,4.081 c -0.28,3.029 -1.23,6.18 -3.41,8.39 l -0.101,0.05 -12.63,-7.3 9.03,-5.26 0.031,0.009 z"
   style="fill:#424242" />
		<path
   id="path4758"
   d="m 107.323,39.175 -3.19,-1.83 -0.029,-0.04 -3.141,1.81 -3.85,-2.28 c -0.51,-6.35 1.439,-11.11 5.04,-13.22 3.13,-1.84 7.51,-1.68 12.6,1.19 10.19,6.01 18.45,20.56 17.641,32.46 l -7.08,-4.11 v -0.03 -3.54 l -0.051,-0.03 -3.189,-1.83 -0.03,-0.04 -3.13,1.82 -2.54,-1.5 v -0.04 -3.54 l -0.05,-0.03 -3.25,-1.89 -0.03,-0.04 -3.08,1.81 -2.59,-1.5 v -0.03 -3.54 l -0.051,-0.03 z"
   style="fill:#424242" />
		<path
   id="path4760"
   d="m 136.953,11.965 c 1.38,0.91 2.04,2.22 1.81,3.48 h -0.01 c -1.02,-4.33 -11.33,-4.42 -12.6,-0.12 h -0.01 c -0.271,-0.86 0.27,-1.72 1.63,-2.58 2.47,-1.47 6.53,-2.22 9.18,-0.78 z"
   style="fill:#424242" />
		<path
   id="path4762"
   d="m 138.753,15.445 h 0.01 c -0.14,0.79 -0.63,1.56 -1.51,2.22 -2.689,1.72 -6.8,0.93 -9.42,-0.54 -0.95,-0.59 -1.52,-1.2 -1.689,-1.8 h 0.01 c 1.269,-4.3 11.58,-4.21 12.599,0.12 z"
   style="fill:#424242" />
		<path
   id="path4764"
   d="m 114.753,24.805 c -5.09,-2.87 -9.47,-3.03 -12.6,-1.19 v -0.01 l 35.46,-20.46 c 1.5,-0.85 3.08,-1.21 4.689,-1.21 6.141,0 12.66,5.31 16.131,9.55 5.13,6.16 9.43,15.2 9.43,23.49 0,0.59 -0.021,1.18 -0.07,1.77 l -35.399,20.521 c 0.809,-11.901 -7.45,-26.451 -17.641,-32.461 z m 24.01,-9.36 c 0.23,-1.26 -0.43,-2.57 -1.81,-3.48 -2.65,-1.44 -6.71,-0.69 -9.18,0.78 -1.36,0.86 -1.9,1.72 -1.63,2.58 0.17,0.6 0.739,1.21 1.689,1.8 2.62,1.47 6.73,2.26 9.42,0.54 0.881,-0.66 1.371,-1.43 1.511,-2.22 z"
   style="fill:#424242" />
		<polygon
   id="polygon4766"
   points="99.633,47.305 97.593,48.505 97.593,45.865 96.753,45.385 107.323,39.175 107.373,39.205 107.373,42.745 107.343,42.765 "
   style="fill:#f0f0f0" />
		<polygon
   id="polygon4768"
   points="97.593,48.505 97.593,49.465 91.894,52.675 91.894,49.105 91.864,49.085 97.593,45.865 "
   style="fill:#f0f0f0" />
		<polygon
   id="polygon4770"
   points="116.323,44.395 116.373,44.425 116.373,47.965 116.343,47.985 107.303,53.225 106.533,53.665 106.533,51.025 105.694,50.545 "
   style="fill:#f0f0f0" />
		<polygon
   id="polygon4772"
   points="106.533,51.025 106.533,53.665 106.533,54.625 100.894,57.895 100.894,54.325 100.864,54.305 "
   style="fill:#f0f0f0" />
		<polygon
   id="polygon4774"
   points="115.533,56.245 114.694,55.765 125.263,49.555 125.314,49.585 125.314,53.125 125.283,53.145 116.253,58.405 115.533,58.825 "
   style="fill:#f0f0f0" />
		<polygon
   id="polygon4776"
   points="109.894,59.485 109.864,59.465 115.533,56.245 115.533,58.825 115.533,59.844 109.894,63.054 "
   style="fill:#f0f0f0" />
		<polygon
   id="polygon4778"
   points="109.053,59.005 109.053,62.545 109.024,62.565 26.134,110.485 26.134,106.885 109.024,58.965 109.064,58.985 "
   style="fill:#f0f0f0" />
		<polygon
   id="polygon4780"
   points="104.934,56.655 109.024,54.245 110.583,53.325 110.614,53.365 111.453,53.845 118.913,49.505 122.043,47.685 122.073,47.725 125.263,49.555 114.694,55.765 115.533,56.245 109.864,59.465 109.064,58.985 109.024,58.965 26.134,106.885 22.893,104.965 104.913,57.575 105.703,57.115 "
   style="fill:#f0f0f0" />
		<polygon
   id="polygon4782"
   points="109.963,44.275 113.043,42.465 113.073,42.505 116.323,44.395 105.694,50.545 106.533,51.025 100.864,54.305 100.064,53.825 100.024,53.805 17.194,101.665 13.893,99.804 95.974,52.355 96.763,51.895 95.993,51.435 100.333,48.895 101.583,48.165 101.614,48.205 102.453,48.685 "
   style="fill:#f0f0f0" />
		<polygon
   id="polygon4784"
   points="100.053,53.845 100.053,57.385 100.024,57.405 17.194,105.265 17.194,101.665 100.024,53.805 100.064,53.825 "
   style="fill:#f0f0f0" />
		<polygon
   id="polygon4786"
   points="26.134,110.485 22.893,108.545 22.893,104.965 26.134,106.885 "
   style="fill:#f0f0f0" />
		<polygon
   id="polygon4788"
   points="17.194,105.265 13.893,103.375 13.893,99.804 17.194,101.665 "
   style="fill:#f0f0f0" />
		<polygon
   id="polygon4790"
   points="8.194,100.105 4.953,98.165 4.953,94.585 8.194,96.505 "
   style="fill:#f0f0f0" />
		<polygon
   id="polygon4792"
   points="91.024,48.585 91.064,48.605 91.053,48.625 91.053,52.165 91.024,52.185 8.194,100.105 8.194,96.505 "
   style="fill:#f0f0f0" />
		<polygon
   id="polygon4794"
   points="8.194,96.505 4.953,94.585 86.974,47.195 87.763,46.735 86.993,46.275 92.583,42.945 92.614,42.985 93.453,43.465 97.703,41.005 100.963,39.115 104.104,37.305 104.133,37.345 107.323,39.175 96.753,45.385 97.593,45.865 91.864,49.085 91.064,48.605 91.024,48.585 "
   style="fill:#f0f0f0" />
	</g>
	<g
   id="g4796">
		
			<line
   id="line4798"
   y2="105.265"
   x2="17.194"
   y1="101.665"
   x1="17.194"
   stroke-miterlimit="10"
   style="fill:none;stroke:#000000;stroke-width:1.01999998;stroke-linecap:round;stroke-linejoin:round;stroke-miterlimit:10" />
		
			<polyline
   id="polyline4800"
   points="    86.974,46.285 86.993,46.275 92.583,42.945 92.614,42.925   "
   stroke-miterlimit="10"
   style="fill:none;stroke:#000000;stroke-width:1.01999998;stroke-linecap:round;stroke-linejoin:round;stroke-miterlimit:10" />
		
			<polyline
   id="polyline4802"
   points="    106.533,53.665 107.303,53.225 116.343,47.985 116.373,47.965   "
   stroke-miterlimit="10"
   style="fill:none;stroke:#000000;stroke-width:1.01999998;stroke-linecap:round;stroke-linejoin:round;stroke-miterlimit:10" />
		
			<polyline
   id="polyline4804"
   points="    93.453,43.465 97.703,41.005 100.963,39.115 104.104,37.305 104.133,37.285   "
   stroke-miterlimit="10"
   style="fill:none;stroke:#000000;stroke-width:1.01999998;stroke-linecap:round;stroke-linejoin:round;stroke-miterlimit:10" />
		
			<polyline
   id="polyline4806"
   points="    104.133,37.345 107.323,39.175 107.373,39.205   "
   stroke-miterlimit="10"
   style="fill:none;stroke:#000000;stroke-width:1.01999998;stroke-linecap:round;stroke-linejoin:round;stroke-miterlimit:10" />
		
			<polyline
   id="polyline4808"
   points="    107.373,39.205 107.373,42.745 107.373,42.775 107.373,42.805   "
   stroke-miterlimit="10"
   style="fill:none;stroke:#000000;stroke-width:1.01999998;stroke-linecap:round;stroke-linejoin:round;stroke-miterlimit:10" />
		
			<polyline
   id="polyline4810"
   points="    105.753,57.145 105.703,57.115 104.934,56.655 104.854,56.605   "
   stroke-miterlimit="10"
   style="fill:none;stroke:#000000;stroke-width:1.01999998;stroke-linecap:round;stroke-linejoin:round;stroke-miterlimit:10" />
		
			<polyline
   id="polyline4812"
   points="    104.913,56.665 104.934,56.655 109.024,54.245 110.583,53.325 110.614,53.305   "
   stroke-miterlimit="10"
   style="fill:none;stroke:#000000;stroke-width:1.01999998;stroke-linecap:round;stroke-linejoin:round;stroke-miterlimit:10" />
		
			<line
   id="line4814"
   y2="53.845001"
   x2="111.453"
   y1="53.365002"
   x1="110.614"
   stroke-miterlimit="10"
   style="fill:none;stroke:#000000;stroke-width:1.01999998;stroke-linecap:round;stroke-linejoin:round;stroke-miterlimit:10" />
		
			<polyline
   id="polyline4816"
   points="    104.913,56.665 104.913,57.575 104.913,57.625   "
   stroke-miterlimit="10"
   style="fill:none;stroke:#000000;stroke-width:1.01999998;stroke-linecap:round;stroke-linejoin:round;stroke-miterlimit:10" />
		
			<polyline
   id="polyline4818"
   points="    115.533,56.245 109.864,59.465 109.833,59.485   "
   stroke-miterlimit="10"
   style="fill:none;stroke:#000000;stroke-width:1.01999998;stroke-linecap:round;stroke-linejoin:round;stroke-miterlimit:10" />
		
			<polyline
   id="polyline4820"
   points="    109.053,59.005 109.053,62.545 109.053,62.585 109.053,62.605   "
   stroke-miterlimit="10"
   style="fill:none;stroke:#000000;stroke-width:1.01999998;stroke-linecap:round;stroke-linejoin:round;stroke-miterlimit:10" />
		
			<polyline
   id="polyline4822"
   points="    109.894,59.485 109.894,63.054 109.894,63.085   "
   stroke-miterlimit="10"
   style="fill:none;stroke:#000000;stroke-width:1.01999998;stroke-linecap:round;stroke-linejoin:round;stroke-miterlimit:10" />
		
			<polyline
   id="polyline4824"
   points="    114.694,55.765 125.263,49.555 125.314,49.525   "
   stroke-miterlimit="10"
   style="fill:none;stroke:#000000;stroke-width:1.01999998;stroke-linecap:round;stroke-linejoin:round;stroke-miterlimit:10" />
		
			<line
   id="line4826"
   y2="106.885"
   x2="26.134001"
   y1="104.965"
   x1="22.893"
   stroke-miterlimit="10"
   style="fill:none;stroke:#000000;stroke-width:1.01999998;stroke-linecap:round;stroke-linejoin:round;stroke-miterlimit:10" />
		
			<polyline
   id="polyline4828"
   points="    22.893,104.965 104.913,57.575 105.703,57.115 105.753,57.085   "
   stroke-miterlimit="10"
   style="fill:none;stroke:#000000;stroke-width:1.01999998;stroke-linecap:round;stroke-linejoin:round;stroke-miterlimit:10" />
		
			<polyline
   id="polyline4830"
   points="    22.893,108.565 22.893,108.545 22.893,104.965 22.893,104.905   "
   stroke-miterlimit="10"
   style="fill:none;stroke:#000000;stroke-width:1.01999998;stroke-linecap:round;stroke-linejoin:round;stroke-miterlimit:10" />
		
			<polyline
   id="polyline4832"
   points="    109.894,59.485 109.864,59.465 109.064,58.985 109.024,58.965 108.993,58.945   "
   stroke-miterlimit="10"
   style="fill:none;stroke:#000000;stroke-width:1.01999998;stroke-linecap:round;stroke-linejoin:round;stroke-miterlimit:10" />
		
			<polyline
   id="polyline4834"
   points="    26.134,106.885 109.024,58.965 109.053,58.945   "
   stroke-miterlimit="10"
   style="fill:none;stroke:#000000;stroke-width:1.01999998;stroke-linecap:round;stroke-linejoin:round;stroke-miterlimit:10" />
		
			<polyline
   id="polyline4836"
   points="    26.134,110.485 109.024,62.565 109.053,62.545   "
   stroke-miterlimit="10"
   style="fill:none;stroke:#000000;stroke-width:1.01999998;stroke-linecap:round;stroke-linejoin:round;stroke-miterlimit:10" />
		
			<line
   id="line4838"
   y2="110.485"
   x2="26.134001"
   y1="106.885"
   x1="26.134001"
   stroke-miterlimit="10"
   style="fill:none;stroke:#000000;stroke-width:1.01999998;stroke-linecap:round;stroke-linejoin:round;stroke-miterlimit:10" />
		
			<polyline
   id="polyline4840"
   points="    115.533,59.844 109.894,63.054 109.864,63.065 109.833,63.085   "
   stroke-miterlimit="10"
   style="fill:none;stroke:#000000;stroke-width:1.01999998;stroke-linecap:round;stroke-linejoin:round;stroke-miterlimit:10" />
		
			<polyline
   id="polyline4842"
   points="    109.894,63.085 109.864,63.065 109.053,62.585 109.024,62.565 108.993,62.545   "
   stroke-miterlimit="10"
   style="fill:none;stroke:#000000;stroke-width:1.01999998;stroke-linecap:round;stroke-linejoin:round;stroke-miterlimit:10" />
		
			<line
   id="line4844"
   y2="56.244999"
   x2="115.533"
   y1="55.764999"
   x1="114.694"
   stroke-miterlimit="10"
   style="fill:none;stroke:#000000;stroke-width:1.01999998;stroke-linecap:round;stroke-linejoin:round;stroke-miterlimit:10" />
		
			<polyline
   id="polyline4846"
   points="    26.134,110.485 22.893,108.545 22.833,108.505   "
   stroke-miterlimit="10"
   style="fill:none;stroke:#000000;stroke-width:1.01999998;stroke-linecap:round;stroke-linejoin:round;stroke-miterlimit:10" />
		
			<polyline
   id="polyline4848"
   points="    115.533,56.245 115.533,58.825 115.533,59.844   "
   stroke-miterlimit="10"
   style="fill:none;stroke:#000000;stroke-width:1.01999998;stroke-linecap:round;stroke-linejoin:round;stroke-miterlimit:10" />
		
			<polyline
   id="polyline4850"
   points="    111.453,53.845 118.913,49.505 122.043,47.685 122.073,47.665   "
   stroke-miterlimit="10"
   style="fill:none;stroke:#000000;stroke-width:1.01999998;stroke-linecap:round;stroke-linejoin:round;stroke-miterlimit:10" />
		
			<polyline
   id="polyline4852"
   points="    115.533,58.825 116.253,58.405 125.283,53.145 125.314,53.125   "
   stroke-miterlimit="10"
   style="fill:none;stroke:#000000;stroke-width:1.01999998;stroke-linecap:round;stroke-linejoin:round;stroke-miterlimit:10" />
		
			<polyline
   id="polyline4854"
   points="    122.073,47.725 125.263,49.555 125.314,49.585   "
   stroke-miterlimit="10"
   style="fill:none;stroke:#000000;stroke-width:1.01999998;stroke-linecap:round;stroke-linejoin:round;stroke-miterlimit:10" />
		
			<polyline
   id="polyline4856"
   points="    125.314,49.585 125.314,53.125 125.314,53.155 125.314,53.185   "
   stroke-miterlimit="10"
   style="fill:none;stroke:#000000;stroke-width:1.01999998;stroke-linecap:round;stroke-linejoin:round;stroke-miterlimit:10" />
		
			<polyline
   id="polyline4858"
   points="    8.194,96.505 91.024,48.585 91.053,48.565   "
   stroke-miterlimit="10"
   style="fill:none;stroke:#000000;stroke-width:1.01999998;stroke-linecap:round;stroke-linejoin:round;stroke-miterlimit:10" />
		
			<line
   id="line4860"
   y2="96.504997"
   x2="8.1940002"
   y1="94.584999"
   x1="4.9530001"
   stroke-miterlimit="10"
   style="fill:none;stroke:#000000;stroke-width:1.01999998;stroke-linecap:round;stroke-linejoin:round;stroke-miterlimit:10" />
		
			<polyline
   id="polyline4862"
   points="    4.953,94.585 86.974,47.195 87.763,46.735 87.814,46.705   "
   stroke-miterlimit="10"
   style="fill:none;stroke:#000000;stroke-width:1.01999998;stroke-linecap:round;stroke-linejoin:round;stroke-miterlimit:10" />
		
			<line
   id="line4864"
   y2="100.105"
   x2="8.1940002"
   y1="96.504997"
   x1="8.1940002"
   stroke-miterlimit="10"
   style="fill:none;stroke:#000000;stroke-width:1.01999998;stroke-linecap:round;stroke-linejoin:round;stroke-miterlimit:10" />
		
			<polyline
   id="polyline4866"
   points="    97.593,48.505 99.633,47.305 107.343,42.765 107.373,42.745   "
   stroke-miterlimit="10"
   style="fill:none;stroke:#000000;stroke-width:1.01999998;stroke-linecap:round;stroke-linejoin:round;stroke-miterlimit:10" />
		
			<polyline
   id="polyline4868"
   points="    96.753,45.385 107.323,39.175 107.373,39.145   "
   stroke-miterlimit="10"
   style="fill:none;stroke:#000000;stroke-width:1.01999998;stroke-linecap:round;stroke-linejoin:round;stroke-miterlimit:10" />
		
			<line
   id="line4870"
   y2="45.865002"
   x2="97.593002"
   y1="45.384998"
   x1="96.752998"
   stroke-miterlimit="10"
   style="fill:none;stroke:#000000;stroke-width:1.01999998;stroke-linecap:round;stroke-linejoin:round;stroke-miterlimit:10" />
		
			<polyline
   id="polyline4872"
   points="    97.593,45.865 91.864,49.085 91.833,49.105   "
   stroke-miterlimit="10"
   style="fill:none;stroke:#000000;stroke-width:1.01999998;stroke-linecap:round;stroke-linejoin:round;stroke-miterlimit:10" />
		
			<polyline
   id="polyline4874"
   points="    91.894,49.105 91.864,49.085 91.064,48.605 91.024,48.585 90.993,48.565   "
   stroke-miterlimit="10"
   style="fill:none;stroke:#000000;stroke-width:1.01999998;stroke-linecap:round;stroke-linejoin:round;stroke-miterlimit:10" />
		
			<polyline
   id="polyline4876"
   points="    91.894,49.105 91.894,52.675 91.894,52.705   "
   stroke-miterlimit="10"
   style="fill:none;stroke:#000000;stroke-width:1.01999998;stroke-linecap:round;stroke-linejoin:round;stroke-miterlimit:10" />
		
			<polyline
   id="polyline4878"
   points="    97.593,45.865 97.593,48.505 97.593,49.465   "
   stroke-miterlimit="10"
   style="fill:none;stroke:#000000;stroke-width:1.01999998;stroke-linecap:round;stroke-linejoin:round;stroke-miterlimit:10" />
		
			<polyline
   id="polyline4880"
   points="    4.953,98.185 4.953,98.165 4.953,94.585 4.953,94.525   "
   stroke-miterlimit="10"
   style="fill:none;stroke:#000000;stroke-width:1.01999998;stroke-linecap:round;stroke-linejoin:round;stroke-miterlimit:10" />
		
			<polyline
   id="polyline4882"
   points="    8.194,100.105 91.024,52.185 91.053,52.165   "
   stroke-miterlimit="10"
   style="fill:none;stroke:#000000;stroke-width:1.01999998;stroke-linecap:round;stroke-linejoin:round;stroke-miterlimit:10" />
		
			<polyline
   id="polyline4884"
   points="    91.053,48.625 91.053,52.165 91.053,52.205 91.053,52.225   "
   stroke-miterlimit="10"
   style="fill:none;stroke:#000000;stroke-width:1.01999998;stroke-linecap:round;stroke-linejoin:round;stroke-miterlimit:10" />
		
			<polyline
   id="polyline4886"
   points="    97.593,49.465 91.894,52.675 91.864,52.685 91.833,52.705   "
   stroke-miterlimit="10"
   style="fill:none;stroke:#000000;stroke-width:1.01999998;stroke-linecap:round;stroke-linejoin:round;stroke-miterlimit:10" />
		
			<polyline
   id="polyline4888"
   points="    91.894,52.705 91.864,52.685 91.053,52.205 91.024,52.185 90.993,52.165   "
   stroke-miterlimit="10"
   style="fill:none;stroke:#000000;stroke-width:1.01999998;stroke-linecap:round;stroke-linejoin:round;stroke-miterlimit:10" />
		
			<line
   id="line4890"
   y2="43.465"
   x2="93.453003"
   y1="42.985001"
   x1="92.613998"
   stroke-miterlimit="10"
   style="fill:none;stroke:#000000;stroke-width:1.01999998;stroke-linecap:round;stroke-linejoin:round;stroke-miterlimit:10" />
		
			<polyline
   id="polyline4892"
   points="    8.194,100.105 4.953,98.165 4.893,98.125   "
   stroke-miterlimit="10"
   style="fill:none;stroke:#000000;stroke-width:1.01999998;stroke-linecap:round;stroke-linejoin:round;stroke-miterlimit:10" />
		
			<polyline
   id="polyline4894"
   points="    87.814,46.765 87.763,46.735 86.993,46.275 86.913,46.225   "
   stroke-miterlimit="10"
   style="fill:none;stroke:#000000;stroke-width:1.01999998;stroke-linecap:round;stroke-linejoin:round;stroke-miterlimit:10" />
		
			<polyline
   id="polyline4896"
   points="    86.974,46.285 86.974,47.195 86.974,47.245   "
   stroke-miterlimit="10"
   style="fill:none;stroke:#000000;stroke-width:1.01999998;stroke-linecap:round;stroke-linejoin:round;stroke-miterlimit:10" />
		
			<line
   id="line4898"
   y2="23.605"
   x2="102.154"
   y1="3.145"
   x1="137.614"
   stroke-miterlimit="10"
   style="fill:none;stroke:#000000;stroke-width:1.01999998;stroke-linecap:round;stroke-linejoin:round;stroke-miterlimit:10" />
		
			<path
   id="path4900"
   d="m 132.394,57.265 c 0.81,-11.9 -7.45,-26.451 -17.641,-32.46 -5.09,-2.87 -9.47,-3.03 -12.6,-1.19 -3.601,2.11 -5.55,6.87 -5.04,13.22 0,0.01 0,0.02 0,0.03"
   stroke-miterlimit="10"
   style="fill:none;stroke:#000000;stroke-width:1.01999998;stroke-linecap:round;stroke-linejoin:round;stroke-miterlimit:10" />
		
			<path
   id="path4902"
   d="m 167.793,36.805 c 0,-0.02 0,-0.04 0,-0.06 0.05,-0.59 0.07,-1.18 0.07,-1.77 0,-8.29 -4.3,-17.33 -9.43,-23.49 -3.471,-4.24 -9.99,-9.55 -16.131,-9.55 -1.609,0 -3.189,0.36 -4.689,1.21"
   stroke-miterlimit="10"
   style="fill:none;stroke:#000000;stroke-width:1.01999998;stroke-linecap:round;stroke-linejoin:round;stroke-miterlimit:10" />
		
			<line
   id="line4904"
   y2="57.264999"
   x2="132.394"
   y1="53.185001"
   x1="125.314"
   stroke-miterlimit="10"
   style="fill:none;stroke:#000000;stroke-width:1.01999998;stroke-linecap:round;stroke-linejoin:round;stroke-miterlimit:10" />
		
			<line
   id="line4906"
   y2="49.505001"
   x2="118.913"
   y1="48.025002"
   x1="116.373"
   stroke-miterlimit="10"
   style="fill:none;stroke:#000000;stroke-width:1.01999998;stroke-linecap:round;stroke-linejoin:round;stroke-miterlimit:10" />
		
			<line
   id="line4908"
   y2="44.275002"
   x2="109.963"
   y1="42.805"
   x1="107.373"
   stroke-miterlimit="10"
   style="fill:none;stroke:#000000;stroke-width:1.01999998;stroke-linecap:round;stroke-linejoin:round;stroke-miterlimit:10" />
		
			<line
   id="line4910"
   y2="39.115002"
   x2="100.963"
   y1="36.865002"
   x1="97.113998"
   stroke-miterlimit="10"
   style="fill:none;stroke:#000000;stroke-width:1.01999998;stroke-linecap:round;stroke-linejoin:round;stroke-miterlimit:10" />
		
			<path
   id="path4912"
   d="m 136.953,11.965 c 1.38,0.91 2.04,2.22 1.81,3.48 -0.14,0.79 -0.63,1.56 -1.51,2.22 -2.689,1.72 -6.8,0.93 -9.42,-0.54 -0.95,-0.59 -1.52,-1.2 -1.689,-1.8 -0.271,-0.86 0.27,-1.72 1.63,-2.58 2.469,-1.47 6.529,-2.22 9.179,-0.78"
   stroke-miterlimit="10"
   style="fill:none;stroke:#000000;stroke-width:1.01999998;stroke-linecap:round;stroke-linejoin:round;stroke-miterlimit:10" />
		
			<path
   id="path4914"
   d="m 126.154,15.325 c 1.27,-4.3 11.58,-4.21 12.6,0.12"
   stroke-miterlimit="10"
   style="fill:none;stroke:#000000;stroke-width:1.01999998;stroke-linecap:round;stroke-linejoin:round;stroke-miterlimit:10" />
		
			<path
   id="path4916"
   d="m 164.314,45.265 c 2.359,-2.13 3.149,-5.42 3.479,-8.46"
   stroke-miterlimit="10"
   style="fill:none;stroke:#000000;stroke-width:1.01999998;stroke-linecap:round;stroke-linejoin:round;stroke-miterlimit:10" />
		
			<path
   id="path4918"
   d="m 128.913,65.725 c 0.021,-0.021 0.05,-0.051 0.07,-0.07 2.18,-2.21 3.13,-5.36 3.41,-8.39"
   stroke-miterlimit="10"
   style="fill:none;stroke:#000000;stroke-width:1.01999998;stroke-linecap:round;stroke-linejoin:round;stroke-miterlimit:10" />
		
			<polyline
   id="polyline4920"
   points="    116.253,58.405 128.883,65.705 128.913,65.725   "
   stroke-miterlimit="10"
   style="fill:none;stroke:#000000;stroke-width:1.01999998;stroke-linecap:round;stroke-linejoin:round;stroke-miterlimit:10" />
		
			<polyline
   id="polyline4922"
   points="    107.314,53.245 109.024,54.245 109.053,54.265   "
   stroke-miterlimit="10"
   style="fill:none;stroke:#000000;stroke-width:1.01999998;stroke-linecap:round;stroke-linejoin:round;stroke-miterlimit:10" />
		
			<polyline
   id="polyline4924"
   points="    99.633,47.305 100.333,48.895 100.354,48.925   "
   stroke-miterlimit="10"
   style="fill:none;stroke:#000000;stroke-width:1.01999998;stroke-linecap:round;stroke-linejoin:round;stroke-miterlimit:10" />
		
			<polyline
   id="polyline4926"
   points="    97.114,36.865 97.293,38.965 97.703,41.005 97.713,41.065   "
   stroke-miterlimit="10"
   style="fill:none;stroke:#000000;stroke-width:1.01999998;stroke-linecap:round;stroke-linejoin:round;stroke-miterlimit:10" />
		
			<polyline
   id="polyline4928"
   points="    164.314,45.265 128.984,65.655 128.883,65.705 128.854,65.725   "
   stroke-miterlimit="10"
   style="fill:none;stroke:#000000;stroke-width:1.01999998;stroke-linecap:round;stroke-linejoin:round;stroke-miterlimit:10" />
		
			<polyline
   id="polyline4930"
   points="    101.013,39.145 100.963,39.115 97.114,36.835 97.053,36.805   "
   stroke-miterlimit="10"
   style="fill:none;stroke:#000000;stroke-width:1.01999998;stroke-linecap:round;stroke-linejoin:round;stroke-miterlimit:10" />
		
			<polyline
   id="polyline4932"
   points="    110.013,44.305 109.963,44.275 107.373,42.775 107.343,42.765 107.314,42.745   "
   stroke-miterlimit="10"
   style="fill:none;stroke:#000000;stroke-width:1.01999998;stroke-linecap:round;stroke-linejoin:round;stroke-miterlimit:10" />
		
			<polyline
   id="polyline4934"
   points="    118.953,49.525 118.913,49.505 116.373,48.005 116.343,47.985 116.314,47.965   "
   stroke-miterlimit="10"
   style="fill:none;stroke:#000000;stroke-width:1.01999998;stroke-linecap:round;stroke-linejoin:round;stroke-miterlimit:10" />
		
			<polyline
   id="polyline4936"
   points="    132.394,57.265 125.314,53.155 125.283,53.145 125.253,53.125   "
   stroke-miterlimit="10"
   style="fill:none;stroke:#000000;stroke-width:1.01999998;stroke-linecap:round;stroke-linejoin:round;stroke-miterlimit:10" />
		
			<line
   id="line4938"
   y2="36.744999"
   x2="167.793"
   y1="57.264999"
   x1="132.394"
   stroke-miterlimit="10"
   style="fill:none;stroke:#000000;stroke-width:1.01999998;stroke-linecap:round;stroke-linejoin:round;stroke-miterlimit:10" />
		
			<polyline
   id="polyline4940"
   points="    96.814,51.925 96.763,51.895 95.993,51.435 95.913,51.385   "
   stroke-miterlimit="10"
   style="fill:none;stroke:#000000;stroke-width:1.01999998;stroke-linecap:round;stroke-linejoin:round;stroke-miterlimit:10" />
		
			<polyline
   id="polyline4942"
   points="    95.974,51.445 95.993,51.435 100.333,48.895 101.583,48.165 101.614,48.145   "
   stroke-miterlimit="10"
   style="fill:none;stroke:#000000;stroke-width:1.01999998;stroke-linecap:round;stroke-linejoin:round;stroke-miterlimit:10" />
		
			<polyline
   id="polyline4944"
   points="    95.974,51.445 95.974,52.355 95.974,52.465   "
   stroke-miterlimit="10"
   style="fill:none;stroke:#000000;stroke-width:1.01999998;stroke-linecap:round;stroke-linejoin:round;stroke-miterlimit:10" />
		
			<line
   id="line4946"
   y2="48.685001"
   x2="102.453"
   y1="48.205002"
   x1="101.614"
   stroke-miterlimit="10"
   style="fill:none;stroke:#000000;stroke-width:1.01999998;stroke-linecap:round;stroke-linejoin:round;stroke-miterlimit:10" />
		
			<polyline
   id="polyline4948"
   points="    106.533,54.625 100.894,57.895 100.864,57.905 100.833,57.925   "
   stroke-miterlimit="10"
   style="fill:none;stroke:#000000;stroke-width:1.01999998;stroke-linecap:round;stroke-linejoin:round;stroke-miterlimit:10" />
		
			<line
   id="line4950"
   y2="51.025002"
   x2="106.533"
   y1="50.544998"
   x1="105.694"
   stroke-miterlimit="10"
   style="fill:none;stroke:#000000;stroke-width:1.01999998;stroke-linecap:round;stroke-linejoin:round;stroke-miterlimit:10" />
		
			<polyline
   id="polyline4952"
   points="    106.533,51.025 100.864,54.305 100.833,54.325   "
   stroke-miterlimit="10"
   style="fill:none;stroke:#000000;stroke-width:1.01999998;stroke-linecap:round;stroke-linejoin:round;stroke-miterlimit:10" />
		
			<polyline
   id="polyline4954"
   points="    100.894,54.325 100.864,54.305 100.064,53.825 100.024,53.805 99.993,53.785   "
   stroke-miterlimit="10"
   style="fill:none;stroke:#000000;stroke-width:1.01999998;stroke-linecap:round;stroke-linejoin:round;stroke-miterlimit:10" />
		
			<polyline
   id="polyline4956"
   points="    100.053,53.845 100.053,57.385 100.053,57.425 100.053,57.445   "
   stroke-miterlimit="10"
   style="fill:none;stroke:#000000;stroke-width:1.01999998;stroke-linecap:round;stroke-linejoin:round;stroke-miterlimit:10" />
		
			<polyline
   id="polyline4958"
   points="    100.894,54.325 100.894,57.895 100.894,57.925   "
   stroke-miterlimit="10"
   style="fill:none;stroke:#000000;stroke-width:1.01999998;stroke-linecap:round;stroke-linejoin:round;stroke-miterlimit:10" />
		
			<polyline
   id="polyline4960"
   points="    106.533,51.025 106.533,53.665 106.533,54.625   "
   stroke-miterlimit="10"
   style="fill:none;stroke:#000000;stroke-width:1.01999998;stroke-linecap:round;stroke-linejoin:round;stroke-miterlimit:10" />
		
			<polyline
   id="polyline4962"
   points="    113.073,42.505 116.323,44.395 116.373,44.425   "
   stroke-miterlimit="10"
   style="fill:none;stroke:#000000;stroke-width:1.01999998;stroke-linecap:round;stroke-linejoin:round;stroke-miterlimit:10" />
		
			<polyline
   id="polyline4964"
   points="    100.894,57.925 100.864,57.905 100.053,57.425 100.024,57.405 99.993,57.385   "
   stroke-miterlimit="10"
   style="fill:none;stroke:#000000;stroke-width:1.01999998;stroke-linecap:round;stroke-linejoin:round;stroke-miterlimit:10" />
		
			<polyline
   id="polyline4966"
   points="    116.373,44.425 116.373,47.965 116.373,48.005 116.373,48.025   "
   stroke-miterlimit="10"
   style="fill:none;stroke:#000000;stroke-width:1.01999998;stroke-linecap:round;stroke-linejoin:round;stroke-miterlimit:10" />
		
			<polyline
   id="polyline4968"
   points="    105.694,50.545 116.323,44.395 116.373,44.365   "
   stroke-miterlimit="10"
   style="fill:none;stroke:#000000;stroke-width:1.01999998;stroke-linecap:round;stroke-linejoin:round;stroke-miterlimit:10" />
		
			<polyline
   id="polyline4970"
   points="    17.194,101.665 100.024,53.805 100.053,53.785   "
   stroke-miterlimit="10"
   style="fill:none;stroke:#000000;stroke-width:1.01999998;stroke-linecap:round;stroke-linejoin:round;stroke-miterlimit:10" />
		
			<line
   id="line4972"
   y2="101.665"
   x2="17.194"
   y1="99.804001"
   x1="13.893"
   stroke-miterlimit="10"
   style="fill:none;stroke:#000000;stroke-width:1.01999998;stroke-linecap:round;stroke-linejoin:round;stroke-miterlimit:10" />
		
			<polyline
   id="polyline4974"
   points="    13.893,99.804 95.974,52.355 96.763,51.895 96.814,51.865   "
   stroke-miterlimit="10"
   style="fill:none;stroke:#000000;stroke-width:1.01999998;stroke-linecap:round;stroke-linejoin:round;stroke-miterlimit:10" />
		
			<polyline
   id="polyline4976"
   points="    102.453,48.685 109.963,44.275 113.043,42.465 113.073,42.445   "
   stroke-miterlimit="10"
   style="fill:none;stroke:#000000;stroke-width:1.01999998;stroke-linecap:round;stroke-linejoin:round;stroke-miterlimit:10" />
		
			<polyline
   id="polyline4978"
   points="    17.194,105.265 13.893,103.375 13.833,103.344   "
   stroke-miterlimit="10"
   style="fill:none;stroke:#000000;stroke-width:1.01999998;stroke-linecap:round;stroke-linejoin:round;stroke-miterlimit:10" />
		
			<polyline
   id="polyline4980"
   points="    13.893,103.405 13.893,103.375 13.893,99.804 13.893,99.745   "
   stroke-miterlimit="10"
   style="fill:none;stroke:#000000;stroke-width:1.01999998;stroke-linecap:round;stroke-linejoin:round;stroke-miterlimit:10" />
		
			<polyline
   id="polyline4982"
   points="    17.194,105.265 100.024,57.405 100.053,57.385   "
   stroke-miterlimit="10"
   style="fill:none;stroke:#000000;stroke-width:1.01999998;stroke-linecap:round;stroke-linejoin:round;stroke-miterlimit:10" />
	</g>
</g></g>
<rect
   x="13.227345"
   y="-100.07803"
   width="164.033"
   height="107.219"
   id="rect245"
   style="fill:none" />
<rect
   x="7.7433534"
   y="-106.46904"
   width="175"
   height="120"
   id="rect247"
   style="fill:none" />
<text
   xml:space="preserve"
   style="font-size:4.05263138px;font-style:normal;font-variant:normal;font-weight:normal;font-stretch:normal;text-align:start;line-height:100%;writing-mode:lr-tb;text-anchor:start;fill:#000000;fill-opacity:1;stroke:none;font-family:DejaVu Sans;-inkscape-font-specification:DejaVu Sans"
   x="2.8549225"
   y="36.628082"
   id="text2629"
   sodipodi:linespacing="100%"><tspan
     sodipodi:role="line"
     id="tspan2631"
     x="2.8549225"
     y="36.628082"
     style="font-size:4.05263138px;font-style:normal;font-variant:normal;font-weight:normal;font-stretch:normal;text-align:start;line-height:100%;writing-mode:lr-tb;text-anchor:start;font-family:DejaVu Sans;-inkscape-font-specification:DejaVu Sans">1</tspan></text>

<text
   xml:space="preserve"
   style="font-size:4.05263138px;font-style:normal;font-variant:normal;font-weight:normal;font-stretch:normal;text-align:start;line-height:100%;writing-mode:lr-tb;text-anchor:start;fill:#000000;fill-opacity:1;stroke:none;overflow:visible;font-family:DejaVu Sans;-inkscape-font-specification:DejaVu Sans"
   x="-0.65060806"
   y="34.516136"
   id="text2633"
   sodipodi:linespacing="100%"><tspan
     sodipodi:role="line"
     id="tspan2635"
     x="-0.65060806"
     y="34.516136"
     style="font-size:4.05263138px;font-style:normal;font-variant:normal;font-weight:normal;font-stretch:normal;text-align:start;line-height:100%;writing-mode:lr-tb;text-anchor:start;font-family:DejaVu Sans;-inkscape-font-specification:DejaVu Sans">2</tspan></text>

<text
   xml:space="preserve"
   style="font-size:4.05263138px;font-style:normal;font-variant:normal;font-weight:normal;font-stretch:normal;text-align:start;line-height:100%;writing-mode:lr-tb;text-anchor:start;fill:#000000;fill-opacity:1;stroke:none;overflow:visible;font-family:DejaVu Sans;-inkscape-font-specification:DejaVu Sans"
   x="-4.3349438"
   y="32.328396"
   id="text2637"
   sodipodi:linespacing="100%"><tspan
     sodipodi:role="line"
     id="tspan2639"
     x="-4.3349438"
     y="32.328396"
     style="font-size:4.05263138px;font-style:normal;font-variant:normal;font-weight:normal;font-stretch:normal;text-align:start;line-height:100%;writing-mode:lr-tb;text-anchor:start;font-family:DejaVu Sans;-inkscape-font-specification:DejaVu Sans">3</tspan></text>

</svg>