<?xml version="1.0" encoding="utf-8"?>
<!-- Generator: Adobe Illustrator 12.0.0, SVG Export Plug-In . SVG Version: 6.00 Build 51448)  -->
<!DOCTYPE svg PUBLIC "-//W3C//DTD SVG 1.0//EN" "http://www.w3.org/TR/2001/REC-SVG-20010904/DTD/svg10.dtd" [
	<!ENTITY ns_svg "http://www.w3.org/2000/svg">
	<!ENTITY ns_xlink "http://www.w3.org/1999/xlink">
]>
<svg  version="1.0" id="Layer_1" xmlns="&ns_svg;" xmlns:xlink="&ns_xlink;" width="175.5" height="120.5"
	 viewBox="-1.377 -4.045 175.5 120.5" overflow="visible" enable-background="new -1.377 -4.045 175.5 120.5" xml:space="preserve">
<g id="XMLID_4_">
	<g>
		<polygon fill="#424242" points="100.963,39.115 97.703,41.005 97.293,38.965 97.114,36.865 		"/>
		<polygon fill="#424242" points="109.963,44.275 102.453,48.685 101.614,48.205 101.583,48.165 100.333,48.895 99.633,47.305 
			107.343,42.765 107.373,42.775 107.373,42.805 		"/>
		<polygon fill="#424242" points="107.303,53.225 116.343,47.985 116.373,48.005 116.373,48.025 118.913,49.505 111.453,53.845 
			110.614,53.365 110.583,53.325 109.024,54.245 107.314,53.245 		"/>
		<path fill="#424242" d="M132.394,57.265l35.399-20.521c0,0.02,0,0.04,0,0.06c-0.33,3.04-1.12,6.33-3.479,8.46l-35.33,20.39
			C131.163,63.445,132.114,60.295,132.394,57.265z"/>
		<path fill="#424242" d="M125.314,53.155v0.03l7.08,4.081c-0.28,3.029-1.23,6.18-3.41,8.39l-0.101,0.05l-12.63-7.3l9.03-5.26
			L125.314,53.155z"/>
		<path fill="#424242" d="M107.323,39.175l-3.19-1.83l-0.029-0.04l-3.141,1.81l-3.85-2.28c-0.51-6.35,1.439-11.11,5.04-13.22
			c3.13-1.84,7.51-1.68,12.6,1.19c10.19,6.01,18.45,20.56,17.641,32.46l-7.08-4.11v-0.03v-3.54l-0.051-0.03l-3.189-1.83l-0.03-0.04
			l-3.13,1.82l-2.54-1.5v-0.04v-3.54l-0.05-0.03l-3.25-1.89l-0.03-0.04l-3.08,1.81l-2.59-1.5v-0.03v-3.54L107.323,39.175z"/>
		<path fill="#424242" d="M136.953,11.965c1.38,0.91,2.04,2.22,1.81,3.48h-0.01c-1.02-4.33-11.33-4.42-12.6-0.12h-0.01
			c-0.271-0.86,0.27-1.72,1.63-2.58C130.243,11.275,134.303,10.525,136.953,11.965z"/>
		<path fill="#424242" d="M138.753,15.445h0.01c-0.14,0.79-0.63,1.56-1.51,2.22c-2.689,1.72-6.8,0.93-9.42-0.54
			c-0.95-0.59-1.52-1.2-1.689-1.8h0.01C127.423,11.025,137.734,11.115,138.753,15.445z"/>
		<path fill="#424242" d="M114.753,24.805c-5.09-2.87-9.47-3.03-12.6-1.19v-0.01l35.46-20.46c1.5-0.85,3.08-1.21,4.689-1.21
			c6.141,0,12.66,5.31,16.131,9.55c5.13,6.16,9.43,15.2,9.43,23.49c0,0.59-0.021,1.18-0.07,1.77l-35.399,20.521
			C133.203,45.365,124.944,30.815,114.753,24.805z M138.763,15.445c0.23-1.26-0.43-2.57-1.81-3.48c-2.65-1.44-6.71-0.69-9.18,0.78
			c-1.36,0.86-1.9,1.72-1.63,2.58c0.17,0.6,0.739,1.21,1.689,1.8c2.62,1.47,6.73,2.26,9.42,0.54
			C138.133,17.005,138.623,16.235,138.763,15.445z"/>
		<polygon fill="#F0F0F0" points="96.753,45.385 107.323,39.175 107.373,39.205 107.373,42.745 107.343,42.765 99.633,47.305 
			97.593,48.505 97.593,45.865 		"/>
		<polygon fill="#F0F0F0" points="97.593,49.465 91.894,52.675 91.894,49.105 91.864,49.085 97.593,45.865 97.593,48.505 		"/>
		<polygon fill="#F0F0F0" points="116.343,47.985 107.303,53.225 106.533,53.665 106.533,51.025 105.694,50.545 116.323,44.395 
			116.373,44.425 116.373,47.965 		"/>
		<polygon fill="#F0F0F0" points="106.533,53.665 106.533,54.625 100.894,57.895 100.894,54.325 100.864,54.305 106.533,51.025 		
			"/>
		<polygon fill="#F0F0F0" points="125.314,49.585 125.314,53.125 125.283,53.145 116.253,58.405 115.533,58.825 115.533,56.245 
			114.694,55.765 125.263,49.555 		"/>
		<polygon fill="#F0F0F0" points="109.864,59.465 115.533,56.245 115.533,58.825 115.533,59.844 109.894,63.054 109.894,59.485 		
			"/>
		<polygon fill="#F0F0F0" points="109.024,62.565 26.134,110.485 26.134,106.885 109.024,58.965 109.064,58.985 109.053,59.005 
			109.053,62.545 		"/>
		<polygon fill="#F0F0F0" points="109.024,58.965 26.134,106.885 22.893,104.965 104.913,57.575 105.703,57.115 104.934,56.655 
			109.024,54.245 110.583,53.325 110.614,53.365 111.453,53.845 118.913,49.505 122.043,47.685 122.073,47.725 125.263,49.555 
			114.694,55.765 115.533,56.245 109.864,59.465 109.064,58.985 		"/>
		<polygon fill="#F0F0F0" points="95.993,51.435 100.333,48.895 101.583,48.165 101.614,48.205 102.453,48.685 109.963,44.275 
			113.043,42.465 113.073,42.505 116.323,44.395 105.694,50.545 106.533,51.025 100.864,54.305 100.064,53.825 100.024,53.805 
			17.194,101.665 13.893,99.804 95.974,52.355 96.763,51.895 		"/>
		<polygon fill="#F0F0F0" points="100.024,57.405 17.194,105.265 17.194,101.665 100.024,53.805 100.064,53.825 100.053,53.845 
			100.053,57.385 		"/>
		<polygon fill="#F0F0F0" points="26.134,106.885 26.134,110.485 22.893,108.545 22.893,104.965 		"/>
		<polygon fill="#F0F0F0" points="17.194,101.665 17.194,105.265 13.893,103.375 13.893,99.804 		"/>
		<polygon fill="#F0F0F0" points="8.194,96.505 8.194,100.105 4.953,98.165 4.953,94.585 		"/>
		<polygon fill="#F0F0F0" points="91.053,48.625 91.053,52.165 91.024,52.185 8.194,100.105 8.194,96.505 91.024,48.585 
			91.064,48.605 		"/>
		<polygon fill="#F0F0F0" points="96.753,45.385 97.593,45.865 91.864,49.085 91.064,48.605 91.024,48.585 8.194,96.505 
			4.953,94.585 86.974,47.195 87.763,46.735 86.993,46.275 92.583,42.945 92.614,42.985 93.453,43.465 97.703,41.005 
			100.963,39.115 104.104,37.305 104.133,37.345 107.323,39.175 		"/>
	</g>
	<g>
		
			<line fill="none" stroke="#000000" stroke-width="1.02" stroke-linecap="round" stroke-linejoin="round" stroke-miterlimit="10" x1="17.194" y1="101.665" x2="17.194" y2="105.265"/>
		
			<polyline fill="none" stroke="#000000" stroke-width="1.02" stroke-linecap="round" stroke-linejoin="round" stroke-miterlimit="10" points="
			86.974,46.285 86.993,46.275 92.583,42.945 92.614,42.925 		"/>
		
			<polyline fill="none" stroke="#000000" stroke-width="1.02" stroke-linecap="round" stroke-linejoin="round" stroke-miterlimit="10" points="
			106.533,53.665 107.303,53.225 116.343,47.985 116.373,47.965 		"/>
		
			<polyline fill="none" stroke="#000000" stroke-width="1.02" stroke-linecap="round" stroke-linejoin="round" stroke-miterlimit="10" points="
			93.453,43.465 97.703,41.005 100.963,39.115 104.104,37.305 104.133,37.285 		"/>
		
			<polyline fill="none" stroke="#000000" stroke-width="1.02" stroke-linecap="round" stroke-linejoin="round" stroke-miterlimit="10" points="
			104.133,37.345 107.323,39.175 107.373,39.205 		"/>
		
			<polyline fill="none" stroke="#000000" stroke-width="1.02" stroke-linecap="round" stroke-linejoin="round" stroke-miterlimit="10" points="
			107.373,39.205 107.373,42.745 107.373,42.775 107.373,42.805 		"/>
		
			<polyline fill="none" stroke="#000000" stroke-width="1.02" stroke-linecap="round" stroke-linejoin="round" stroke-miterlimit="10" points="
			105.753,57.145 105.703,57.115 104.934,56.655 104.854,56.605 		"/>
		
			<polyline fill="none" stroke="#000000" stroke-width="1.02" stroke-linecap="round" stroke-linejoin="round" stroke-miterlimit="10" points="
			104.913,56.665 104.934,56.655 109.024,54.245 110.583,53.325 110.614,53.305 		"/>
		
			<line fill="none" stroke="#000000" stroke-width="1.02" stroke-linecap="round" stroke-linejoin="round" stroke-miterlimit="10" x1="110.614" y1="53.365" x2="111.453" y2="53.845"/>
		
			<polyline fill="none" stroke="#000000" stroke-width="1.02" stroke-linecap="round" stroke-linejoin="round" stroke-miterlimit="10" points="
			104.913,56.665 104.913,57.575 104.913,57.625 		"/>
		
			<polyline fill="none" stroke="#000000" stroke-width="1.02" stroke-linecap="round" stroke-linejoin="round" stroke-miterlimit="10" points="
			115.533,56.245 109.864,59.465 109.833,59.485 		"/>
		
			<polyline fill="none" stroke="#000000" stroke-width="1.02" stroke-linecap="round" stroke-linejoin="round" stroke-miterlimit="10" points="
			109.053,59.005 109.053,62.545 109.053,62.585 109.053,62.605 		"/>
		
			<polyline fill="none" stroke="#000000" stroke-width="1.02" stroke-linecap="round" stroke-linejoin="round" stroke-miterlimit="10" points="
			109.894,59.485 109.894,63.054 109.894,63.085 		"/>
		
			<polyline fill="none" stroke="#000000" stroke-width="1.02" stroke-linecap="round" stroke-linejoin="round" stroke-miterlimit="10" points="
			114.694,55.765 125.263,49.555 125.314,49.525 		"/>
		
			<line fill="none" stroke="#000000" stroke-width="1.02" stroke-linecap="round" stroke-linejoin="round" stroke-miterlimit="10" x1="22.893" y1="104.965" x2="26.134" y2="106.885"/>
		
			<polyline fill="none" stroke="#000000" stroke-width="1.02" stroke-linecap="round" stroke-linejoin="round" stroke-miterlimit="10" points="
			22.893,104.965 104.913,57.575 105.703,57.115 105.753,57.085 		"/>
		
			<polyline fill="none" stroke="#000000" stroke-width="1.02" stroke-linecap="round" stroke-linejoin="round" stroke-miterlimit="10" points="
			22.893,108.565 22.893,108.545 22.893,104.965 22.893,104.905 		"/>
		
			<polyline fill="none" stroke="#000000" stroke-width="1.02" stroke-linecap="round" stroke-linejoin="round" stroke-miterlimit="10" points="
			109.894,59.485 109.864,59.465 109.064,58.985 109.024,58.965 108.993,58.945 		"/>
		
			<polyline fill="none" stroke="#000000" stroke-width="1.02" stroke-linecap="round" stroke-linejoin="round" stroke-miterlimit="10" points="
			26.134,106.885 109.024,58.965 109.053,58.945 		"/>
		
			<polyline fill="none" stroke="#000000" stroke-width="1.02" stroke-linecap="round" stroke-linejoin="round" stroke-miterlimit="10" points="
			26.134,110.485 109.024,62.565 109.053,62.545 		"/>
		
			<line fill="none" stroke="#000000" stroke-width="1.02" stroke-linecap="round" stroke-linejoin="round" stroke-miterlimit="10" x1="26.134" y1="106.885" x2="26.134" y2="110.485"/>
		
			<polyline fill="none" stroke="#000000" stroke-width="1.02" stroke-linecap="round" stroke-linejoin="round" stroke-miterlimit="10" points="
			115.533,59.844 109.894,63.054 109.864,63.065 109.833,63.085 		"/>
		
			<polyline fill="none" stroke="#000000" stroke-width="1.02" stroke-linecap="round" stroke-linejoin="round" stroke-miterlimit="10" points="
			109.894,63.085 109.864,63.065 109.053,62.585 109.024,62.565 108.993,62.545 		"/>
		
			<line fill="none" stroke="#000000" stroke-width="1.02" stroke-linecap="round" stroke-linejoin="round" stroke-miterlimit="10" x1="114.694" y1="55.765" x2="115.533" y2="56.245"/>
		
			<polyline fill="none" stroke="#000000" stroke-width="1.02" stroke-linecap="round" stroke-linejoin="round" stroke-miterlimit="10" points="
			26.134,110.485 22.893,108.545 22.833,108.505 		"/>
		
			<polyline fill="none" stroke="#000000" stroke-width="1.02" stroke-linecap="round" stroke-linejoin="round" stroke-miterlimit="10" points="
			115.533,56.245 115.533,58.825 115.533,59.844 		"/>
		
			<polyline fill="none" stroke="#000000" stroke-width="1.02" stroke-linecap="round" stroke-linejoin="round" stroke-miterlimit="10" points="
			111.453,53.845 118.913,49.505 122.043,47.685 122.073,47.665 		"/>
		
			<polyline fill="none" stroke="#000000" stroke-width="1.02" stroke-linecap="round" stroke-linejoin="round" stroke-miterlimit="10" points="
			115.533,58.825 116.253,58.405 125.283,53.145 125.314,53.125 		"/>
		
			<polyline fill="none" stroke="#000000" stroke-width="1.02" stroke-linecap="round" stroke-linejoin="round" stroke-miterlimit="10" points="
			122.073,47.725 125.263,49.555 125.314,49.585 		"/>
		
			<polyline fill="none" stroke="#000000" stroke-width="1.02" stroke-linecap="round" stroke-linejoin="round" stroke-miterlimit="10" points="
			125.314,49.585 125.314,53.125 125.314,53.155 125.314,53.185 		"/>
		
			<polyline fill="none" stroke="#000000" stroke-width="1.02" stroke-linecap="round" stroke-linejoin="round" stroke-miterlimit="10" points="
			8.194,96.505 91.024,48.585 91.053,48.565 		"/>
		
			<line fill="none" stroke="#000000" stroke-width="1.02" stroke-linecap="round" stroke-linejoin="round" stroke-miterlimit="10" x1="4.953" y1="94.585" x2="8.194" y2="96.505"/>
		
			<polyline fill="none" stroke="#000000" stroke-width="1.02" stroke-linecap="round" stroke-linejoin="round" stroke-miterlimit="10" points="
			4.953,94.585 86.974,47.195 87.763,46.735 87.814,46.705 		"/>
		
			<line fill="none" stroke="#000000" stroke-width="1.02" stroke-linecap="round" stroke-linejoin="round" stroke-miterlimit="10" x1="8.194" y1="96.505" x2="8.194" y2="100.105"/>
		
			<polyline fill="none" stroke="#000000" stroke-width="1.02" stroke-linecap="round" stroke-linejoin="round" stroke-miterlimit="10" points="
			97.593,48.505 99.633,47.305 107.343,42.765 107.373,42.745 		"/>
		
			<polyline fill="none" stroke="#000000" stroke-width="1.02" stroke-linecap="round" stroke-linejoin="round" stroke-miterlimit="10" points="
			96.753,45.385 107.323,39.175 107.373,39.145 		"/>
		
			<line fill="none" stroke="#000000" stroke-width="1.02" stroke-linecap="round" stroke-linejoin="round" stroke-miterlimit="10" x1="96.753" y1="45.385" x2="97.593" y2="45.865"/>
		
			<polyline fill="none" stroke="#000000" stroke-width="1.02" stroke-linecap="round" stroke-linejoin="round" stroke-miterlimit="10" points="
			97.593,45.865 91.864,49.085 91.833,49.105 		"/>
		
			<polyline fill="none" stroke="#000000" stroke-width="1.02" stroke-linecap="round" stroke-linejoin="round" stroke-miterlimit="10" points="
			91.894,49.105 91.864,49.085 91.064,48.605 91.024,48.585 90.993,48.565 		"/>
		
			<polyline fill="none" stroke="#000000" stroke-width="1.02" stroke-linecap="round" stroke-linejoin="round" stroke-miterlimit="10" points="
			91.894,49.105 91.894,52.675 91.894,52.705 		"/>
		
			<polyline fill="none" stroke="#000000" stroke-width="1.02" stroke-linecap="round" stroke-linejoin="round" stroke-miterlimit="10" points="
			97.593,45.865 97.593,48.505 97.593,49.465 		"/>
		
			<polyline fill="none" stroke="#000000" stroke-width="1.02" stroke-linecap="round" stroke-linejoin="round" stroke-miterlimit="10" points="
			4.953,98.185 4.953,98.165 4.953,94.585 4.953,94.525 		"/>
		
			<polyline fill="none" stroke="#000000" stroke-width="1.02" stroke-linecap="round" stroke-linejoin="round" stroke-miterlimit="10" points="
			8.194,100.105 91.024,52.185 91.053,52.165 		"/>
		
			<polyline fill="none" stroke="#000000" stroke-width="1.02" stroke-linecap="round" stroke-linejoin="round" stroke-miterlimit="10" points="
			91.053,48.625 91.053,52.165 91.053,52.205 91.053,52.225 		"/>
		
			<polyline fill="none" stroke="#000000" stroke-width="1.02" stroke-linecap="round" stroke-linejoin="round" stroke-miterlimit="10" points="
			97.593,49.465 91.894,52.675 91.864,52.685 91.833,52.705 		"/>
		
			<polyline fill="none" stroke="#000000" stroke-width="1.02" stroke-linecap="round" stroke-linejoin="round" stroke-miterlimit="10" points="
			91.894,52.705 91.864,52.685 91.053,52.205 91.024,52.185 90.993,52.165 		"/>
		
			<line fill="none" stroke="#000000" stroke-width="1.02" stroke-linecap="round" stroke-linejoin="round" stroke-miterlimit="10" x1="92.614" y1="42.985" x2="93.453" y2="43.465"/>
		
			<polyline fill="none" stroke="#000000" stroke-width="1.02" stroke-linecap="round" stroke-linejoin="round" stroke-miterlimit="10" points="
			8.194,100.105 4.953,98.165 4.893,98.125 		"/>
		
			<polyline fill="none" stroke="#000000" stroke-width="1.02" stroke-linecap="round" stroke-linejoin="round" stroke-miterlimit="10" points="
			87.814,46.765 87.763,46.735 86.993,46.275 86.913,46.225 		"/>
		
			<polyline fill="none" stroke="#000000" stroke-width="1.02" stroke-linecap="round" stroke-linejoin="round" stroke-miterlimit="10" points="
			86.974,46.285 86.974,47.195 86.974,47.245 		"/>
		
			<line fill="none" stroke="#000000" stroke-width="1.02" stroke-linecap="round" stroke-linejoin="round" stroke-miterlimit="10" x1="137.614" y1="3.145" x2="102.154" y2="23.605"/>
		
			<path fill="none" stroke="#000000" stroke-width="1.02" stroke-linecap="round" stroke-linejoin="round" stroke-miterlimit="10" d="
			M132.394,57.265c0.81-11.9-7.45-26.451-17.641-32.46c-5.09-2.87-9.47-3.03-12.6-1.19c-3.601,2.11-5.55,6.87-5.04,13.22
			c0,0.01,0,0.02,0,0.03"/>
		
			<path fill="none" stroke="#000000" stroke-width="1.02" stroke-linecap="round" stroke-linejoin="round" stroke-miterlimit="10" d="
			M167.793,36.805c0-0.02,0-0.04,0-0.06c0.05-0.59,0.07-1.18,0.07-1.77c0-8.29-4.3-17.33-9.43-23.49
			c-3.471-4.24-9.99-9.55-16.131-9.55c-1.609,0-3.189,0.36-4.689,1.21"/>
		
			<line fill="none" stroke="#000000" stroke-width="1.02" stroke-linecap="round" stroke-linejoin="round" stroke-miterlimit="10" x1="125.314" y1="53.185" x2="132.394" y2="57.265"/>
		
			<line fill="none" stroke="#000000" stroke-width="1.02" stroke-linecap="round" stroke-linejoin="round" stroke-miterlimit="10" x1="116.373" y1="48.025" x2="118.913" y2="49.505"/>
		
			<line fill="none" stroke="#000000" stroke-width="1.02" stroke-linecap="round" stroke-linejoin="round" stroke-miterlimit="10" x1="107.373" y1="42.805" x2="109.963" y2="44.275"/>
		
			<line fill="none" stroke="#000000" stroke-width="1.02" stroke-linecap="round" stroke-linejoin="round" stroke-miterlimit="10" x1="97.114" y1="36.865" x2="100.963" y2="39.115"/>
		
			<path fill="none" stroke="#000000" stroke-width="1.02" stroke-linecap="round" stroke-linejoin="round" stroke-miterlimit="10" d="
			M136.953,11.965c1.38,0.91,2.04,2.22,1.81,3.48c-0.14,0.79-0.63,1.56-1.51,2.22c-2.689,1.72-6.8,0.93-9.42-0.54
			c-0.95-0.59-1.52-1.2-1.689-1.8c-0.271-0.86,0.27-1.72,1.63-2.58C130.243,11.275,134.303,10.525,136.953,11.965"/>
		
			<path fill="none" stroke="#000000" stroke-width="1.02" stroke-linecap="round" stroke-linejoin="round" stroke-miterlimit="10" d="
			M126.154,15.325c1.27-4.3,11.58-4.21,12.6,0.12"/>
		
			<path fill="none" stroke="#000000" stroke-width="1.02" stroke-linecap="round" stroke-linejoin="round" stroke-miterlimit="10" d="
			M164.314,45.265c2.359-2.13,3.149-5.42,3.479-8.46"/>
		
			<path fill="none" stroke="#000000" stroke-width="1.02" stroke-linecap="round" stroke-linejoin="round" stroke-miterlimit="10" d="
			M128.913,65.725c0.021-0.021,0.05-0.051,0.07-0.07c2.18-2.21,3.13-5.36,3.41-8.39"/>
		
			<polyline fill="none" stroke="#000000" stroke-width="1.02" stroke-linecap="round" stroke-linejoin="round" stroke-miterlimit="10" points="
			116.253,58.405 128.883,65.705 128.913,65.725 		"/>
		
			<polyline fill="none" stroke="#000000" stroke-width="1.02" stroke-linecap="round" stroke-linejoin="round" stroke-miterlimit="10" points="
			107.314,53.245 109.024,54.245 109.053,54.265 		"/>
		
			<polyline fill="none" stroke="#000000" stroke-width="1.02" stroke-linecap="round" stroke-linejoin="round" stroke-miterlimit="10" points="
			99.633,47.305 100.333,48.895 100.354,48.925 		"/>
		
			<polyline fill="none" stroke="#000000" stroke-width="1.02" stroke-linecap="round" stroke-linejoin="round" stroke-miterlimit="10" points="
			97.114,36.865 97.293,38.965 97.703,41.005 97.713,41.065 		"/>
		
			<polyline fill="none" stroke="#000000" stroke-width="1.02" stroke-linecap="round" stroke-linejoin="round" stroke-miterlimit="10" points="
			164.314,45.265 128.984,65.655 128.883,65.705 128.854,65.725 		"/>
		
			<polyline fill="none" stroke="#000000" stroke-width="1.02" stroke-linecap="round" stroke-linejoin="round" stroke-miterlimit="10" points="
			101.013,39.145 100.963,39.115 97.114,36.835 97.053,36.805 		"/>
		
			<polyline fill="none" stroke="#000000" stroke-width="1.02" stroke-linecap="round" stroke-linejoin="round" stroke-miterlimit="10" points="
			110.013,44.305 109.963,44.275 107.373,42.775 107.343,42.765 107.314,42.745 		"/>
		
			<polyline fill="none" stroke="#000000" stroke-width="1.02" stroke-linecap="round" stroke-linejoin="round" stroke-miterlimit="10" points="
			118.953,49.525 118.913,49.505 116.373,48.005 116.343,47.985 116.314,47.965 		"/>
		
			<polyline fill="none" stroke="#000000" stroke-width="1.02" stroke-linecap="round" stroke-linejoin="round" stroke-miterlimit="10" points="
			132.394,57.265 125.314,53.155 125.283,53.145 125.253,53.125 		"/>
		
			<line fill="none" stroke="#000000" stroke-width="1.02" stroke-linecap="round" stroke-linejoin="round" stroke-miterlimit="10" x1="132.394" y1="57.265" x2="167.793" y2="36.745"/>
		
			<polyline fill="none" stroke="#000000" stroke-width="1.02" stroke-linecap="round" stroke-linejoin="round" stroke-miterlimit="10" points="
			96.814,51.925 96.763,51.895 95.993,51.435 95.913,51.385 		"/>
		
			<polyline fill="none" stroke="#000000" stroke-width="1.02" stroke-linecap="round" stroke-linejoin="round" stroke-miterlimit="10" points="
			95.974,51.445 95.993,51.435 100.333,48.895 101.583,48.165 101.614,48.145 		"/>
		
			<polyline fill="none" stroke="#000000" stroke-width="1.02" stroke-linecap="round" stroke-linejoin="round" stroke-miterlimit="10" points="
			95.974,51.445 95.974,52.355 95.974,52.465 		"/>
		
			<line fill="none" stroke="#000000" stroke-width="1.02" stroke-linecap="round" stroke-linejoin="round" stroke-miterlimit="10" x1="101.614" y1="48.205" x2="102.453" y2="48.685"/>
		
			<polyline fill="none" stroke="#000000" stroke-width="1.02" stroke-linecap="round" stroke-linejoin="round" stroke-miterlimit="10" points="
			106.533,54.625 100.894,57.895 100.864,57.905 100.833,57.925 		"/>
		
			<line fill="none" stroke="#000000" stroke-width="1.02" stroke-linecap="round" stroke-linejoin="round" stroke-miterlimit="10" x1="105.694" y1="50.545" x2="106.533" y2="51.025"/>
		
			<polyline fill="none" stroke="#000000" stroke-width="1.02" stroke-linecap="round" stroke-linejoin="round" stroke-miterlimit="10" points="
			106.533,51.025 100.864,54.305 100.833,54.325 		"/>
		
			<polyline fill="none" stroke="#000000" stroke-width="1.02" stroke-linecap="round" stroke-linejoin="round" stroke-miterlimit="10" points="
			100.894,54.325 100.864,54.305 100.064,53.825 100.024,53.805 99.993,53.785 		"/>
		
			<polyline fill="none" stroke="#000000" stroke-width="1.02" stroke-linecap="round" stroke-linejoin="round" stroke-miterlimit="10" points="
			100.053,53.845 100.053,57.385 100.053,57.425 100.053,57.445 		"/>
		
			<polyline fill="none" stroke="#000000" stroke-width="1.02" stroke-linecap="round" stroke-linejoin="round" stroke-miterlimit="10" points="
			100.894,54.325 100.894,57.895 100.894,57.925 		"/>
		
			<polyline fill="none" stroke="#000000" stroke-width="1.02" stroke-linecap="round" stroke-linejoin="round" stroke-miterlimit="10" points="
			106.533,51.025 106.533,53.665 106.533,54.625 		"/>
		
			<polyline fill="none" stroke="#000000" stroke-width="1.02" stroke-linecap="round" stroke-linejoin="round" stroke-miterlimit="10" points="
			113.073,42.505 116.323,44.395 116.373,44.425 		"/>
		
			<polyline fill="none" stroke="#000000" stroke-width="1.02" stroke-linecap="round" stroke-linejoin="round" stroke-miterlimit="10" points="
			100.894,57.925 100.864,57.905 100.053,57.425 100.024,57.405 99.993,57.385 		"/>
		
			<polyline fill="none" stroke="#000000" stroke-width="1.02" stroke-linecap="round" stroke-linejoin="round" stroke-miterlimit="10" points="
			116.373,44.425 116.373,47.965 116.373,48.005 116.373,48.025 		"/>
		
			<polyline fill="none" stroke="#000000" stroke-width="1.02" stroke-linecap="round" stroke-linejoin="round" stroke-miterlimit="10" points="
			105.694,50.545 116.323,44.395 116.373,44.365 		"/>
		
			<polyline fill="none" stroke="#000000" stroke-width="1.02" stroke-linecap="round" stroke-linejoin="round" stroke-miterlimit="10" points="
			17.194,101.665 100.024,53.805 100.053,53.785 		"/>
		
			<line fill="none" stroke="#000000" stroke-width="1.02" stroke-linecap="round" stroke-linejoin="round" stroke-miterlimit="10" x1="13.893" y1="99.804" x2="17.194" y2="101.665"/>
		
			<polyline fill="none" stroke="#000000" stroke-width="1.02" stroke-linecap="round" stroke-linejoin="round" stroke-miterlimit="10" points="
			13.893,99.804 95.974,52.355 96.763,51.895 96.814,51.865 		"/>
		
			<polyline fill="none" stroke="#000000" stroke-width="1.02" stroke-linecap="round" stroke-linejoin="round" stroke-miterlimit="10" points="
			102.453,48.685 109.963,44.275 113.043,42.465 113.073,42.445 		"/>
		
			<polyline fill="none" stroke="#000000" stroke-width="1.02" stroke-linecap="round" stroke-linejoin="round" stroke-miterlimit="10" points="
			17.194,105.265 13.893,103.375 13.833,103.344 		"/>
		
			<polyline fill="none" stroke="#000000" stroke-width="1.02" stroke-linecap="round" stroke-linejoin="round" stroke-miterlimit="10" points="
			13.893,103.405 13.893,103.375 13.893,99.804 13.893,99.745 		"/>
		
			<polyline fill="none" stroke="#000000" stroke-width="1.02" stroke-linecap="round" stroke-linejoin="round" stroke-miterlimit="10" points="
			17.194,105.265 100.024,57.405 100.053,57.385 		"/>
	</g>
</g>
</svg>
